<svg width="42" height="41" viewBox="0 0 42 41" fill="none" xmlns="http://www.w3.org/2000/svg">
<path d="M20.8902 40.9444C32.0586 40.9444 41.1124 31.8906 41.1124 20.7222C41.1124 9.5538 32.0586 0.5 20.8902 0.5C9.72177 0.5 0.667969 9.5538 0.667969 20.7222C0.667969 31.8906 9.72177 40.9444 20.8902 40.9444Z" fill="#E84142"/>
<path d="M28.0232 21.247C28.7238 20.0369 29.8543 20.0369 30.555 21.247L34.9179 28.906C35.6185 30.1162 35.0452 31.1034 33.644 31.1034H24.8545C23.4692 31.1034 22.896 30.1162 23.5807 28.906L28.0232 21.247ZM19.584 6.50234C20.2846 5.29219 21.3992 5.29219 22.0998 6.50234L23.0711 8.25387L25.3641 12.2824C25.9214 13.4288 25.9214 14.7823 25.3641 15.9288L17.6732 29.2563C16.9726 30.3391 15.8102 31.0238 14.5205 31.1034H8.13536C6.73413 31.1034 6.1609 30.1321 6.86152 28.906L19.584 6.50234Z" fill="white"/>
</svg>
