<svg width="67" height="54" viewBox="0 0 67 54" fill="none" xmlns="http://www.w3.org/2000/svg">
<path d="M50.2236 16.5044C49.0112 15.8635 47.4526 15.8635 46.0672 16.5044L36.3687 21.7923L29.7878 25.1573L20.2626 30.4451C19.0503 31.0861 17.4917 31.0861 16.1061 30.4451L8.65923 26.2789C7.44694 25.638 6.58102 24.3561 6.58102 22.9139V14.9021C6.58102 13.6202 7.27376 12.3383 8.65923 11.5371L16.1061 7.53117C17.3185 6.89021 18.8772 6.89021 20.2626 7.53117L27.7096 11.6973C28.9218 12.3383 29.7878 13.6202 29.7878 15.0623V20.3502L36.3687 16.8249V11.3769C36.3687 10.095 35.6761 8.81306 34.2905 8.01188L20.4358 0.480712C19.2235 -0.160237 17.6648 -0.160237 16.2793 0.480712L2.07822 8.17211C0.692739 8.81306 0 10.095 0 11.3769V26.4392C0 27.721 0.692739 29.003 2.07822 29.8042L16.1061 37.3353C17.3185 37.9762 18.8772 37.9762 20.2626 37.3353L29.7878 32.2077L36.3687 28.6826L45.894 23.555C47.1062 22.9139 48.665 22.9139 50.0504 23.555L57.4973 27.5608C58.7097 28.2017 59.5755 29.4837 59.5755 30.9258V38.9377C59.5755 40.2197 58.8829 41.5015 57.4973 42.3027L50.2236 46.3087C49.0112 46.9496 47.4526 46.9496 46.0672 46.3087L38.6201 42.3027C37.4079 41.6618 36.5419 40.3799 36.5419 38.9377V33.81L29.961 37.3353V42.6232C29.961 43.905 30.6537 45.187 32.0392 45.9882L46.0672 53.5193C47.2794 54.1602 48.838 54.1602 50.2236 53.5193L64.2515 45.9882C65.4638 45.3473 66.3298 44.0653 66.3298 42.6232V27.4006C66.3298 26.1187 65.637 24.8368 64.2515 24.0357L50.2236 16.5044Z" fill="#8247E5"/>
</svg>
