<svg width="47" height="47" viewBox="0 0 47 47" fill="none" xmlns="http://www.w3.org/2000/svg">
<circle cx="23.998" cy="23.9724" r="23" fill="white"/>
<path d="M12.98 28.9884L15.9297 25.937L12.2627 20.9885L7.59347 14.3822C5.88895 17.2904 4.99289 20.6015 4.99807 23.9724C4.99807 29.7674 7.59347 34.9563 11.6861 38.4409L17.6131 34.2533C15.5852 32.9919 13.9737 31.1601 12.98 28.9884ZM18.9821 12.9543L22.0334 15.9041L26.982 12.2371L33.5883 7.56783C30.68 5.86332 27.369 4.96725 23.998 4.97243C18.2031 4.97243 13.0142 7.56783 9.52956 11.6604L13.7172 17.5875C14.9785 15.5595 16.8094 13.948 18.9811 12.9543H18.9821ZM32.0664 22.0078L35.7334 26.9564L40.4026 33.5627C42.1071 30.6544 43.0032 27.3434 42.998 23.9724C42.998 18.1774 40.4026 12.9885 36.31 9.50393L30.382 13.6915C32.41 14.953 34.0214 16.7838 35.0152 18.9555L32.0664 22.0078ZM38.4665 36.2844L34.2789 30.3574C33.0175 32.3853 31.1867 33.9968 29.015 34.9905L25.9626 32.0408L21.0141 35.7077L14.4078 40.377C17.3161 42.0815 20.6271 42.9776 23.998 42.9724C29.793 42.9724 34.9819 40.377 38.4665 36.2844Z" fill="#161616"/>
</svg>
