<svg width="57" height="54" viewBox="0 0 57 54" fill="none" xmlns="http://www.w3.org/2000/svg">
<path d="M13.677 29.5843L15.1716 18.4136L2.20703 9.46112L14.0526 13.4524L16.8501 9.18284L27.0651 2.87793L49.5813 15.2174L50.7482 34.0447L40.7171 47.9108L32.7881 49.1193L36.8885 41.6535V34.4661L33.907 28.8529L30.8777 26.8572L26.2178 31.6357V36.6923L22.581 40.0793L17.9611 40.6359L15.915 41.7887L12.5579 40.7233L11.1591 35.7143L13.677 32.1922V29.5843Z" fill="white"/>
<path d="M34.3782 9.36651C31.9083 8.85767 29.2067 8.99283 29.2067 8.99283C29.2067 8.99283 28.3195 13.0715 22.8203 14.1449C22.8603 14.1449 30.0859 16.6017 34.3782 9.36651Z" fill="#94A6C3"/>
<path d="M36.6152 46.3759C39.5966 44.0544 41.8346 40.8581 42.8657 37.2406C42.9136 37.1054 43.3293 36.8669 43.6091 36.6841C44.0726 36.4058 44.5442 36.1751 44.6321 35.8015C44.816 34.7361 44.9119 33.623 44.9119 32.5099C44.9119 32.0965 44.4882 31.6751 44.0726 31.2616C43.7449 30.9833 43.4173 30.6573 43.4173 30.4268C42.9536 26.205 40.9953 22.2615 37.8701 19.3912L37.5423 19.7172C40.5718 22.5477 42.5301 26.3958 42.9536 30.4745C43.0016 30.8482 43.3693 31.214 43.7449 31.5876C44.0726 31.8658 44.4483 32.2872 44.4483 32.4702C44.4483 33.5355 44.3524 34.601 44.1685 35.6663C44.1205 35.8491 43.705 36.04 43.3772 36.2228C42.9136 36.4534 42.49 36.6841 42.4022 37.0578C41.2831 41.0013 38.7174 44.436 35.3124 46.6621C35.9199 45.3662 37.8301 41.1443 38.8532 39.0056L38.6695 32.1442L32.7466 26.4435L29.3896 26.9047L25.7049 32.8438C25.7049 32.8438 27.4313 35.0223 25.0015 37.5745C22.6275 40.079 20.7572 40.6355 20.7572 40.6355L19.0308 39.7053C19.5423 39.0533 20.5734 38.0833 21.3647 37.4313C22.7155 36.3183 24.0663 36.2228 24.0663 35.0223C24.1222 32.5099 21.4127 33.2016 21.4127 33.2016L20.4295 34.1318L20.0139 37.5666L17.9677 40.1188L17.7359 40.0711L14.3789 39.3316C14.3789 39.3316 16.433 38.2663 16.7608 37.0578C17.0885 35.8969 16.1053 32.0488 16.0574 31.8182C16.1053 31.8658 17.0405 32.653 17.4562 33.949C18.1995 31.9056 19.1826 29.9578 19.4624 29.7748C19.7421 29.592 23.5147 27.5963 23.5147 27.5963L22.2598 30.888L23.1951 30.3791L25.4331 24.909C25.4331 24.909 27.6232 23.8437 29.2537 23.8437C32.1872 23.7959 36.5273 20.226 34.5691 13.8257C35.1285 14.0562 44.824 18.8824 46.5026 28.3437C47.7574 35.6186 43.6091 42.4324 36.6152 46.3759Z" fill="#94A6C3"/>
<path d="M25.5142 10.3832C26.5853 9.12694 26.1696 7.27441 26.1696 7.27441L23.0444 11.8699C22.9964 11.8699 24.1554 11.9176 25.5142 10.3832Z" fill="#1B314F"/>
<path d="M15.031 35.4756L15.4066 33.623C15.4066 33.623 13.864 36.3105 13.7281 36.6841C13.5842 37.1055 13.824 37.845 14.4235 37.7972C15.031 37.7495 15.7743 36.867 15.7743 36.223C15.7743 35.3882 15.031 35.4756 15.031 35.4756Z" fill="#1B314F"/>
<path d="M42.7171 5.97883C42.7171 5.97883 45.0511 6.07424 47.473 6.35252C42.0137 2.08298 36.8423 0.834725 32.646 0.834725C26.8672 0.834725 22.9506 3.20404 22.7108 3.33919L24.5332 0.461042C24.5332 0.461042 17.2595 -0.238621 14.6939 7.41791C14.0384 5.79597 13.439 3.42665 13.439 3.42665C13.439 3.42665 9.65831 6.7262 11.4327 12.1963C7.09257 10.622 0.898036 8.4356 0.658247 8.39585C0.330537 8.34815 0.234621 8.49126 0.234621 8.49126C0.234621 8.49126 0.138706 8.62642 0.418459 8.86495C0.938001 9.27043 10.7294 16.4659 12.8794 17.8572C12.4158 19.5269 12.4158 20.314 12.8794 21.101C13.5349 22.1665 13.5748 22.723 13.4869 23.5102C13.391 24.2973 12.5518 31.119 12.3679 31.9538C12.1841 32.7886 10.2258 35.7543 10.3137 36.6368C10.4096 37.5193 11.6166 41.2721 12.6957 41.6934C13.4869 41.9717 15.4452 42.5759 16.7481 42.5759C17.2116 42.5759 17.6353 42.4806 17.8191 42.2976C18.6104 41.606 18.8422 41.4628 19.4018 41.4628C19.4497 41.4628 19.4977 41.4628 19.5376 41.4628C19.7693 41.4628 20.0492 41.5106 20.3768 41.5106C21.1201 41.5106 22.1034 41.3674 22.7987 40.7235C23.8218 39.7058 25.5963 38.3143 26.1557 37.6625C26.8591 36.7798 27.2268 35.5793 27.043 34.3708C26.8991 33.2577 27.5065 32.2798 28.2099 31.3098C29.0971 30.149 30.7278 28.0659 30.7278 28.0659C33.9489 30.467 35.9551 34.1323 35.9551 38.2111C35.9551 45.4462 29.6167 51.2899 21.7836 51.2899C20.5687 51.2899 19.4097 51.1547 18.2428 50.8764C21.8316 52.1247 24.8609 52.5462 27.3387 52.5462C32.606 52.5462 35.4035 50.6459 35.4035 50.6459C35.4035 50.6459 34.4285 51.9021 32.8379 53.3332C32.8858 53.3332 32.8858 53.3332 32.8858 53.3332C41.6061 52.1247 45.8504 44.9851 45.8504 44.9851C45.8504 44.9851 45.5226 47.3066 45.1071 48.8809C56.7048 40.2066 54.7465 29.3539 54.6986 28.9882C54.7945 29.1233 55.9614 30.5148 56.561 31.262C58.4313 12.1486 42.7171 5.97883 42.7171 5.97883ZM24.8609 36.5016C24.6771 36.7322 23.8857 37.4318 23.3263 37.9407C22.7668 38.4495 22.1593 38.9583 21.6957 39.4275C21.5119 39.6103 21.1361 39.7058 20.5767 39.7058C20.3928 39.7058 20.201 39.7058 20.0651 39.7058C19.9692 39.7058 19.8812 39.7058 19.7853 39.7058C19.6894 39.7058 19.6414 39.7058 19.6015 39.7058C19.4577 39.7058 19.3218 39.7058 19.1779 39.7058C19.8812 38.7755 21.9275 36.6447 22.6308 36.1835C23.4702 35.627 23.8938 35.0705 23.3743 34.1005C22.8627 33.1225 21.5119 33.3611 21.5119 33.3611C21.5119 33.3611 22.3032 33.0351 23.0066 33.0351C22.1194 32.8046 21.0003 33.0351 20.4887 33.5439C19.9292 34.0527 20.0251 35.8656 19.7934 37.0184C19.5616 38.2269 18.7702 38.8312 17.5554 39.9442C16.8999 40.5485 16.4363 40.7314 16.0607 40.7314C15.2694 40.5962 14.3342 40.3577 13.6788 40.1272C13.2152 39.5229 12.5118 37.5272 12.328 36.6925C12.4638 36.2312 13.0233 35.2533 13.303 34.6968C13.8626 33.6314 14.1904 33.0272 14.2863 32.4707C14.4701 31.6835 15.0776 26.8097 15.3093 24.7744C15.9168 25.5614 16.756 26.8654 16.5642 27.7002C17.915 25.7999 16.9399 23.9394 16.4683 23.2001C16.0526 22.4606 15.4932 20.9739 15.9567 19.3996C16.4203 17.8253 18.0989 13.4605 18.0989 13.4605C18.0989 13.4605 18.6583 14.4383 19.4497 14.2476C20.241 14.0647 26.6274 4.50795 26.6274 4.50795C26.6274 4.50795 28.3538 8.26069 26.5314 11.0037C24.6691 13.7388 22.8467 14.2476 22.8467 14.2476C22.8467 14.2476 25.4124 14.7087 27.7863 12.9914C28.7614 15.2653 29.6967 17.6266 29.7446 17.9526C29.6008 18.2786 27.7384 22.7309 27.5545 23.0092C27.4585 23.1047 26.8111 23.2875 26.3396 23.3829C25.5483 23.6135 25.0847 23.7566 24.8929 23.8918C24.5652 24.1701 23.0705 28.2487 22.375 30.2444C21.5358 30.475 20.6966 30.9441 20.0891 31.8663C20.4168 31.6357 21.4399 31.4927 22.1912 31.4052C22.8467 31.3575 24.8449 32.4229 25.3644 34.4185C25.3644 34.4662 25.3644 34.4662 25.3644 34.5139C25.4684 35.2454 25.2365 35.945 24.8609 36.5016ZM20.4808 37.0581C20.9044 36.4539 20.8564 35.4362 20.9044 35.1103C20.9523 34.7843 21.0402 34.18 21.416 34.0925C21.7916 33.9971 22.6788 34.1402 22.6788 34.7843C22.6788 35.3885 22.0234 35.5236 21.5598 35.945C21.2241 36.2631 20.5687 36.9628 20.4808 37.0581ZM39.0804 28.1931C39.544 25.8318 39.5919 23.7885 39.456 22.1188C41.2704 24.5278 42.3895 27.4537 42.7171 30.467C42.7651 30.8407 43.1328 31.2064 43.5084 31.5801C43.8362 31.8584 44.2118 32.2321 44.2118 32.4626C44.2118 33.5281 44.1159 34.5934 43.9321 35.6668C43.8842 35.8019 43.4685 36.0405 43.1407 36.2233C42.6772 36.4539 42.2535 36.6845 42.1657 37.0581C41.1425 40.6281 38.9444 43.7845 36.011 46.0106C40.3432 41.5106 42.4374 34.0846 39.0804 28.1931ZM36.147 46.4241C39.1763 44.1024 41.5102 40.8586 42.5334 37.1933C42.5813 37.0581 42.9968 36.8196 43.2767 36.6368C43.7403 36.4063 44.2118 36.1279 44.2997 35.7543C44.4836 34.6888 44.5795 33.5758 44.5795 32.4626C44.5795 32.0492 44.1558 31.6278 43.7403 31.2144C43.5084 30.9361 43.1328 30.6101 43.1328 30.3795C42.757 26.9925 41.4063 23.7964 39.3121 21.1488C38.3769 15.5832 34.6523 13.8659 34.5564 13.8182C34.6523 13.9614 37.0741 17.4358 35.3956 21.5145C33.6692 25.641 29.241 24.997 28.8654 25.0366C28.4897 25.0366 27.0509 26.8892 25.2286 30.3239C24.9967 30.2284 24.0136 29.9979 22.8947 30.1888C23.7339 27.8671 24.9967 24.5755 25.2286 24.2973C25.3245 24.2018 26.0199 24.019 26.4914 23.8838C27.3786 23.6532 27.7943 23.5102 27.9381 23.3273C28.0341 23.1842 28.4977 22.1188 28.9613 21.0057C29.3849 21.0057 30.456 20.9103 30.5438 20.8626C30.6398 20.7671 31.527 18.5012 31.527 18.223C31.527 17.9924 29.7046 13.4922 29.0093 11.7749C29.3369 11.4012 29.6647 10.9401 29.9843 10.4312C39.544 11.4569 47.0094 19.5269 47.0094 29.3063C47.0094 36.8196 42.5813 43.3631 36.147 46.4241Z" fill="#1B314F"/>
<path d="M23.7394 21.3798C24.6266 20.3621 24.1629 18.4619 22.5244 18.1359C22.9481 17.166 23.5475 15.218 23.5475 15.218C23.5475 15.218 18.7917 22.6361 18.376 22.7791C17.9524 22.9223 17.5368 21.2923 17.5368 21.2923C16.6496 24.6793 19.0315 25.1404 19.3113 24.0751C20.6141 23.7412 22.8522 22.3497 23.7394 21.3798Z" fill="#1B314F"/>
<path d="M19.6875 23.1839L22.1094 19.0574C22.1094 19.0574 23.5082 19.7571 22.8048 20.8701C21.9256 22.1661 19.6875 23.1839 19.6875 23.1839Z" fill="#FFD923"/>
<path d="M49.6679 42.2982C48.9645 43.2285 48.1732 44.1985 47.2461 45.1287C53.2567 33.624 47.5258 23.0972 47.2941 22.6838C47.7176 23.1051 48.1333 23.5663 48.5089 23.9797C53.1209 29.0762 53.6804 36.7327 49.6679 42.2982Z" fill="#D82122"/>
<path d="M55.258 27.5009C53.1559 21.8878 50.1745 17.1093 43.6044 12.8C37.266 8.62592 30.4559 8.95191 30.0803 8.99961C30.0323 8.99961 29.9844 8.99961 29.9844 8.99961C30.2161 8.9042 30.448 8.8565 30.6797 8.81674C32.1265 8.35561 33.9888 7.98193 35.8592 7.75135C40.8068 7.04374 45.7944 8.71338 49.1995 12.2912C49.2474 12.3389 49.2474 12.3389 49.2953 12.3866C53.1639 16.4653 55.1702 21.5618 55.258 27.5009Z" fill="#D82122"/>
<path d="M42.1115 4.5408C35.1656 3.24484 30.6895 3.88884 27.4683 5.09735C27.3724 4.72366 27.0447 3.98425 26.765 3.37999C25.7979 4.5408 24.7667 5.93217 24.1193 6.8147C22.3449 8.02321 21.6016 9.18401 21.6016 9.18401C22.6246 5.7016 25.614 3.10967 29.2507 2.45772C30.2739 2.27485 31.3928 2.17944 32.6078 2.17944C35.821 2.22714 39.0341 3.01426 42.1115 4.5408Z" fill="#D82122"/>
<path d="M16.4258 13.4445C10.9746 13.2616 12.7891 6.94873 12.885 6.58301C12.885 6.6307 13.2525 11.5443 16.4258 13.4445Z" fill="#D82122"/>
<path d="M21.7847 2.08374C17.5884 4.58821 18.4276 10.5672 18.4276 10.5672C14.4152 4.50075 21.457 2.22685 21.7847 2.08374Z" fill="#D82122"/>
<path d="M14.8942 15.1144C15.1741 15.3449 15.4538 15.7663 15.1261 16.3706C14.9422 16.6966 14.6625 16.6488 14.2389 16.466C13.6794 16.1877 10.3223 14.2398 7.29297 12.2441C10.7459 13.4527 14.2389 14.7486 14.7983 15.0268C14.7983 15.0268 14.8463 15.0746 14.8942 15.1144Z" fill="white"/>
</svg>
