<svg width="28" height="26" viewBox="0 0 28 26" fill="none" xmlns="http://www.w3.org/2000/svg">
<path fill-rule="evenodd" clip-rule="evenodd" d="M19.1959 1.97118C20.4539 2.4484 21.6984 2.92054 22.9056 3.25975C29.5329 4.99741 28.858 8.49884 25.6051 11.4254C25.1396 11.8989 24.651 12.3502 24.2148 12.753C23.9049 13.0392 23.6214 13.301 23.3915 13.5289C20.9214 15.9721 16.5076 20.7539 17.223 25.6272V25.6402C17.1509 25.6519 17.0761 25.6661 16.9998 25.6806C16.9047 25.6987 16.8074 25.7171 16.7101 25.7317C10.1368 27.0382 3.02349 23.393 0 18.7026C1.4838 15.493 1.72189 12.6773 2.03475 8.97738C2.04917 8.80674 2.06377 8.63419 2.07864 8.45965C2.3351 4.86676 3.40142 1.88793 9.71833 0.202533C11.1761 -0.13716 12.6878 -0.0195735 14.2266 0.333181C15.6168 0.00655594 17.223 -0.00650878 18.0869 0.712066C18.6808 1.19547 18.9642 1.6005 19.0452 1.91405C19.0955 1.9331 19.1456 1.95214 19.1959 1.97118ZM8.39557 5.115C8.39557 6.9049 9.8938 8.34207 11.7295 8.34207C13.5786 8.34207 15.0634 6.89185 15.0634 5.115C15.0634 3.32508 13.5651 1.88793 11.7295 1.88793C9.88031 1.88793 8.39557 3.33815 8.39557 5.115ZM20.9214 12.7712C22.0282 12.4967 23.0945 12.1179 24.1204 11.6475C25.1327 11.1641 26.1315 10.6154 26.9818 9.87068L26.9414 9.83148C26.0641 10.5109 25.0382 10.9943 24.0124 11.3993C22.9866 11.8174 21.9202 12.131 20.8269 12.353C19.7471 12.5621 18.6404 12.6536 17.547 12.6144C16.4672 12.5752 15.3739 12.3661 14.4291 11.7782L14.3885 11.8174C15.1579 12.6666 16.3457 13.0455 17.5065 13.15C18.6673 13.2546 19.8147 13.0455 20.9214 12.7712Z" fill="white"/>
</svg>
