<svg width="32" height="23" viewBox="0 0 32 23" fill="none" xmlns="http://www.w3.org/2000/svg">
<path d="M23.6252 22.9813C23.6252 22.9813 22.6322 21.8033 21.8079 20.7748C25.4051 19.765 26.7728 17.5211 26.7728 17.5211C25.6487 18.2505 24.5807 18.774 23.6252 19.1293C22.2575 19.709 20.946 20.0829 19.6533 20.3074C17.0304 20.7935 14.6136 20.6627 12.5527 20.2886C10.9976 19.9894 9.64869 19.5594 8.52457 19.1106C7.88757 18.8674 7.2131 18.5683 6.51989 18.1756C6.44494 18.1195 6.35127 18.1009 6.27633 18.0448C6.22012 18.026 6.20139 17.9886 6.16391 17.9699C5.6768 17.6895 5.39577 17.5025 5.39577 17.5025C5.39577 17.5025 6.70723 19.6903 10.192 20.7374C9.36766 21.7845 8.35594 23 8.35594 23C2.30444 22.7943 0 18.8115 0 18.8115C0 10.0042 3.95315 2.86112 3.95315 2.86112C7.88757 -0.0746209 11.6534 0.000175833 11.6534 0.000175833L11.9344 0.336758C6.98826 1.75789 4.7213 3.90827 4.7213 3.90827C4.7213 3.90827 5.32083 3.57169 6.33253 3.12291C9.25525 1.83268 11.5972 1.4774 12.5527 1.40261C12.7213 1.3839 12.8524 1.34651 13.021 1.34651C14.6884 1.12212 16.5808 1.06602 18.548 1.29041C21.1522 1.58959 23.9437 2.35625 26.7915 3.90827C26.7915 3.90827 24.6182 1.85138 19.9718 0.430253L20.3466 0.000175833C20.3466 0.000175833 24.0936 -0.0746209 28.0467 2.87982C28.0467 2.87982 31.9999 10.0229 31.9999 18.8301C32.0186 18.8115 29.6767 22.7943 23.6252 22.9813ZM10.8852 10.2098C9.33018 10.2098 8.09365 11.5749 8.09365 13.2391C8.09365 14.9033 9.34892 16.2683 10.8852 16.2683C12.4402 16.2683 13.6767 14.9033 13.6767 13.2391C13.6955 11.5749 12.4402 10.2098 10.8852 10.2098ZM20.8899 10.2098C19.3348 10.2098 18.0984 11.5749 18.0984 13.2391C18.0984 14.9033 19.3536 16.2683 20.8899 16.2683C22.4449 16.2683 23.6815 14.9033 23.6815 13.2391C23.6815 11.5749 22.4449 10.2098 20.8899 10.2098Z" fill="white"/>
</svg>
