<svg width="42" height="41" viewBox="0 0 42 41" fill="none" xmlns="http://www.w3.org/2000/svg">
<path d="M21.1128 40.5558C32.2813 40.5558 41.3351 31.502 41.3351 20.3335C41.3351 9.16512 32.2813 0.111328 21.1128 0.111328C9.94442 0.111328 0.890625 9.16512 0.890625 20.3335C0.890625 31.502 9.94442 40.5558 21.1128 40.5558Z" fill="#627EEA"/>
<path d="M21.7422 5.16602V16.3767L31.2176 20.6107L21.7422 5.16602Z" fill="white" fill-opacity="0.602"/>
<path d="M21.7344 5.16626L12.2578 20.611L21.7344 16.377V5.16626Z" fill="white"/>
<path d="M21.7422 27.8759V35.4934L31.2239 22.3755L21.7422 27.8759Z" fill="white" fill-opacity="0.602"/>
<path d="M21.7344 35.4934V27.8747L12.2578 22.3755L21.7344 35.4934Z" fill="white"/>
<path d="M21.7422 26.1114L31.2176 20.6097L21.7422 16.3782V26.1114Z" fill="white" fill-opacity="0.2"/>
<path d="M12.2578 20.6097L21.7344 26.1114V16.3782L12.2578 20.6097Z" fill="white" fill-opacity="0.602"/>
</svg>
