<svg width="40" viewBox="0 0 28 33" fill="none" xmlns="http://www.w3.org/2000/svg">
<path d="M23.6223 5.10816L15.7793 0.996785C14.9121 0.548272 13.6301 0.548272 12.7628 0.996785L4.91993 5.10816C4.65598 5.25766 4.42974 5.44454 4.24121 5.6688H3.90186L3.90186 27.8702H4.24121C4.39204 28.0945 4.61828 28.2814 4.91993 28.4309L12.7628 32.5422C13.1776 32.7665 13.7432 32.8786 14.2711 32.8786C14.799 32.8786 15.3646 32.7665 15.7793 32.5422L23.6223 28.4309C23.9239 28.2814 24.1501 28.0945 24.301 27.8702H24.6403V5.6688H24.301C24.1501 5.44454 23.9239 5.25766 23.6223 5.10816ZM5.78717 8.35988L11.8579 11.5369L5.78717 14.7138L5.78717 8.35988ZM13.3284 12.845L13.3284 20.2081L6.31506 16.5079L13.3284 12.845ZM15.2137 12.845L22.2271 16.5452L15.2137 20.2455L15.2137 12.845ZM16.6843 11.5369L22.755 8.35988V14.7138L16.6843 11.5369ZM13.6301 2.64133C13.9317 2.49183 14.5727 2.49183 14.8744 2.64133L22.2271 6.49108L14.9121 10.3408C14.6104 10.4903 13.9694 10.4903 13.6678 10.3408L6.27735 6.49108L13.6301 2.64133ZM14.9121 30.8977C14.6104 31.0472 13.9694 31.0472 13.6678 30.8977L6.27735 27.0479L5.78717 26.5247L5.78717 18.3767L12.7628 22.0395C13.1776 22.2638 13.7432 22.3759 14.2711 22.3759C14.799 22.3759 15.3646 22.2638 15.7793 22.0395L22.755 18.3767V26.5247L22.2648 27.0479L14.9121 30.8977Z" fill="#3367F6"/>
<path d="M25.2478 2.26691L25.0592 2.15479L24.0789 3.76196L24.2674 3.87409C25.5871 4.65899 25.9265 4.84587 25.9265 6.52779H27.8118C27.8118 3.91146 26.9068 3.23869 25.2478 2.26691Z" fill="#3367F6"/>
<path d="M2.47235 26.6738H0.587036C0.587036 29.2902 1.49199 29.9629 3.15107 30.9347L3.3396 31.0468L4.31996 29.4397L4.13143 29.3275C2.774 28.5426 2.47235 28.3558 2.47235 26.6738Z" fill="#3367F6"/>
</svg>
