<svg width="59" height="54" viewBox="0 0 59 54" fill="none" xmlns="http://www.w3.org/2000/svg">
<path d="M45.8469 0C38.9608 0 33.3433 5.21459 33.162 11.6066V24.559C31.8934 24.559 30.6251 24.7272 29.1752 24.7272C27.7256 24.7272 26.4571 24.7272 25.1886 24.8954V11.6066C25.1886 5.21459 19.3898 -5.87108e-08 12.3225 0.168212C5.61761 0.168212 0.181213 5.3828 0 11.6066V42.5576C0.181213 48.9497 5.79882 54.1644 12.8661 53.996C19.7522 53.8279 25.1886 48.7816 25.1886 42.5576V29.6052C26.4571 29.6052 27.7256 29.4371 29.1752 29.4371C30.6251 29.4371 31.8934 29.4371 33.162 29.269V42.3895C33.3433 48.7816 38.9608 53.996 46.028 53.8279C52.9143 53.6598 58.3507 48.6134 58.3507 42.3895V11.6066C58.3507 5.21459 52.7329 0 45.8469 0ZM12.6849 4.70995C16.8528 4.70995 20.1147 7.73777 20.1147 11.6066V25.2318C16.4904 25.7364 12.8661 26.7458 9.42309 28.0915C7.97338 28.7642 6.52368 29.4371 5.25518 30.4463V11.6066C5.25518 7.90599 8.51702 4.70995 12.6849 4.70995ZM20.1147 42.5576C20.1147 46.4265 16.8528 49.4545 12.6849 49.4545C8.51702 49.4545 5.25518 46.4265 5.25518 42.5576V39.5299C5.25518 36.8386 7.61095 34.147 11.5976 32.6333C14.3158 31.4557 17.2153 30.7828 20.2959 30.2782L20.1147 42.5576ZM45.8469 49.4545C41.679 49.4545 38.4173 46.4265 38.4173 42.5576V28.9326C42.0415 28.428 45.6658 27.4185 49.1087 26.0729C50.5583 25.3999 52.0082 24.7272 53.2765 23.7179V42.5576C53.2765 46.4265 49.8336 49.4545 45.8469 49.4545ZM46.9341 21.6994C44.2159 22.8769 41.3166 23.5497 38.2359 24.0543V11.6066C38.2359 7.73777 41.4979 4.70995 45.6658 4.70995C49.8336 4.70995 53.0954 7.73777 53.0954 11.6066V14.6345C53.2765 17.4941 50.9208 20.0172 46.9341 21.6994Z" fill="url(#paint0_linear_1468_2406)"/>
<defs>
<linearGradient id="paint0_linear_1468_2406" x1="29.1752" y1="-1.11269e-06" x2="-8.06535" y2="40.119" gradientUnits="userSpaceOnUse">
<stop stop-color="#00E8A2"/>
<stop offset="1" stop-color="#00ADE8"/>
</linearGradient>
</defs>
</svg>
