<svg width="36" height="37" viewBox="0 0 36 37" fill="none" xmlns="http://www.w3.org/2000/svg">
<path d="M28.1966 0.500244C23.9616 0.500244 20.5067 3.95518 20.3952 8.19023V16.7718C19.615 16.7718 18.835 16.8833 17.9433 16.8833C17.0517 16.8833 16.2716 16.8833 15.4914 16.9947V8.19023C15.4914 3.95518 11.9251 0.500244 7.57855 0.611693C3.45493 0.611693 0.111449 4.06663 0 8.19023V28.6969C0.111449 32.9319 3.56638 36.3869 7.9129 36.2754C12.148 36.164 15.4914 32.8205 15.4914 28.6969V20.1152C16.2716 20.1152 17.0517 20.0039 17.9433 20.0039C18.835 20.0039 19.615 20.0039 20.3952 19.8925V28.5855C20.5067 32.8205 23.9616 36.2754 28.308 36.164C32.5432 36.0526 35.8867 32.7092 35.8867 28.5855V8.19023C35.8867 3.95518 32.4317 0.500244 28.1966 0.500244ZM7.80145 3.62083C10.3648 3.62083 12.3709 5.62692 12.3709 8.19023V17.2176C10.1419 17.5519 7.9129 18.2207 5.79536 19.1123C4.90377 19.558 4.01218 20.0039 3.23203 20.6725V8.19023C3.23203 5.73837 5.23812 3.62083 7.80145 3.62083ZM12.3709 28.6969C12.3709 31.2602 10.3648 33.2664 7.80145 33.2664C5.23812 33.2664 3.23203 31.2602 3.23203 28.6969V26.6908C3.23203 24.9077 4.68087 23.1244 7.13276 22.1215C8.8045 21.3413 10.5877 20.8954 12.4823 20.5611L12.3709 28.6969ZM28.1966 33.2664C25.6333 33.2664 23.6273 31.2602 23.6273 28.6969V19.6695C25.8563 19.3352 28.0853 18.6664 30.2027 17.7749C31.0943 17.329 31.986 16.8833 32.766 16.2146V28.6969C32.766 31.2602 30.6486 33.2664 28.1966 33.2664ZM28.8653 14.8772C27.1935 15.6573 25.4104 16.1031 23.5157 16.4375V8.19023C23.5157 5.62692 25.522 3.62083 28.0853 3.62083C30.6486 3.62083 32.6546 5.62692 32.6546 8.19023V10.1963C32.766 12.091 31.3172 13.7627 28.8653 14.8772Z" fill="url(#paint0_linear_1468_2268)"/>
<defs>
<linearGradient id="paint0_linear_1468_2268" x1="17.9433" y1="0.500243" x2="-6.79893" y2="25.2425" gradientUnits="userSpaceOnUse">
<stop stop-color="#00E8A2"/>
<stop offset="1" stop-color="#00ADE8"/>
</linearGradient>
</defs>
</svg>
