<?xml version="1.0" encoding="UTF-8" standalone="no"?>
<svg
   xmlns:dc="http://purl.org/dc/elements/1.1/"
   xmlns:cc="http://creativecommons.org/ns#"
   xmlns:rdf="http://www.w3.org/1999/02/22-rdf-syntax-ns#"
   xmlns:svg="http://www.w3.org/2000/svg"
   xmlns="http://www.w3.org/2000/svg"
   xmlns:sodipodi="http://sodipodi.sourceforge.net/DTD/sodipodi-0.dtd"
   xmlns:inkscape="http://www.inkscape.org/namespaces/inkscape"
   version="1.1"
   id="svg2"
   xml:space="preserve"
   width="528"
   height="128"
   viewBox="0 0 528 128"
   sodipodi:docname="omnidex.eps"><metadata
     id="metadata8"><rdf:RDF><cc:Work
         rdf:about=""><dc:format>image/svg+xml</dc:format><dc:type
           rdf:resource="http://purl.org/dc/dcmitype/StillImage" /></cc:Work></rdf:RDF></metadata><defs
     id="defs6" /><sodipodi:namedview
     pagecolor="#ffffff"
     bordercolor="#666666"
     borderopacity="1"
     objecttolerance="10"
     gridtolerance="10"
     guidetolerance="10"
     inkscape:pageopacity="0"
     inkscape:pageshadow="2"
     inkscape:window-width="640"
     inkscape:window-height="480"
     id="namedview4" /><g
     id="g10"
     inkscape:groupmode="layer"
     inkscape:label="ink_ext_XXXXXX"
     transform="matrix(1.3333333,0,0,-1.3333333,0,128)"><g
       id="g12"
       transform="scale(0.1)"><path
         d="m 1626.76,261.496 v 176.215 c 0,24.332 9.28,45.281 27,61.926 17.64,16.574 38.93,24.922 63.12,24.922 24.93,0 47.05,-8.477 65.56,-25.188 18.54,-16.746 28.56,-37.879 28.56,-62.933 V 263.41 c 0,-18.672 16.72,-27.472 31.58,-25.402 13.31,0.066 26.52,8.004 26.52,23.488 v 176.215 c 0,24.332 9.28,45.281 27,61.926 17.64,16.574 38.93,24.922 63.12,24.922 24.94,0 47.05,-8.477 65.56,-25.188 18.55,-16.746 28.57,-37.879 28.57,-62.933 V 263.41 c 0,-33.605 54.15,-35.269 54.15,0.957 v 169.524 c 0,40.179 -14,74.183 -42.28,102.718 -28.16,28.411 -61.89,42.649 -101.9,42.649 -40.75,0 -75.41,-14.055 -104.5,-42.602 -6.9,-6.773 -12.98,-13.859 -18.23,-21.269 -5.11,7.386 -11.01,14.457 -17.71,21.222 -28.17,28.411 -61.89,42.649 -101.91,42.649 -40.75,0 -75.4,-14.055 -104.49,-42.602 -28.84,-28.304 -43.33,-62.054 -43.33,-102.492 V 262.453 c 0,-32.742 53.61,-32.144 53.61,-0.957 z M 2651,631.105 V 267.434 c -0.15,-4.204 0.32,-7.973 1.27,-11.325 -1.76,-9.148 2.34,-19.535 14.19,-27.332 34.68,-14.839 72.86,-23.062 112.97,-23.062 158.76,0 287.46,128.695 287.46,287.449 0,158.754 -128.7,287.449 -287.46,287.449 -40.11,0 -78.29,-8.226 -112.97,-23.062 -26.83,-20.914 0.41,-60.098 36.93,-44.309 23.83,8.231 49.41,12.715 76.04,12.715 128.57,0 232.8,-104.227 232.8,-232.793 0,-128.566 -104.23,-232.793 -232.8,-232.793 -24.8,0 -48.71,3.895 -71.13,11.086 v 362.996 c -1.47,30.317 -58.45,32.313 -57.3,-3.348 z M 3808.39,525.66 3691.42,408.699 3943.23,156.891 c 29.37,-31.746 -14.03,-74.9769 -44.27,-42.59 L 3647.99,365.27 3532.77,250.047 c -30.23,-32.387 -73.64,10.844 -44.27,42.586 l 116.07,116.066 -116.97,116.965 c -27.89,26.156 16.81,67.824 40.89,45.965 l 119.5,-119.504 119.51,119.504 c 24.08,21.859 68.78,-19.809 40.89,-45.969 z M 1253.4,780.613 c 40.11,0 78.29,-8.226 112.97,-23.062 3.74,-2.91 6.42,-6.18 8.18,-9.602 91.7,-48.027 154.29,-144.09 154.29,-254.785 0,-109.512 -61.25,-204.715 -151.36,-253.242 -2.38,-3.988 -6.03,-7.805 -11.11,-11.145 -34.67,-14.839 -72.86,-23.062 -112.97,-23.062 -2.01,0 -4.01,0.035 -6.01,0.074 -2,-0.039 -4,-0.074 -6,-0.074 -40.11,0 -78.3,8.223 -112.98,23.062 -5.07,3.34 -8.72,7.157 -11.1,11.145 -90.11,48.527 -151.361,143.73 -151.361,253.242 0,110.695 62.591,206.758 154.291,254.785 1.76,3.422 4.44,6.692 8.18,9.602 34.68,14.836 72.86,23.062 112.97,23.062 2,0 4,-0.031 6,-0.074 2,0.043 4,0.074 6.01,0.074 z m -6.01,-54.734 c -125.78,-3.184 -226.78,-106.16 -226.78,-232.715 0,-126.555 101,-229.531 226.78,-232.715 125.79,3.184 226.79,106.16 226.79,232.715 0,126.555 -101,229.531 -226.79,232.715 z M 3214.47,374.863 h 185.88 c 32.24,0 67.71,-4.144 65.41,31.27 -7.49,115.351 -71.9,184.808 -187.78,184.808 -49.91,0 -92.07,-17.543 -127.03,-53.195 -35.24,-35.922 -52.42,-78.633 -52.42,-128.933 0,-49.958 18.06,-91.692 54,-126.356 36.29,-35.004 79.31,-52.207 129.72,-52.207 24.06,0 48.59,3.383 70.92,12.695 17.6,7.34 33.44,18.11 47.6,30.77 24.91,28.652 -9.87,60.906 -35.05,36.469 -9.24,-7.844 -19.65,-14.067 -31.13,-18.68 -16.75,-6.719 -34.3,-9.934 -52.34,-9.934 -31.43,0 -60.27,9.032 -84.94,28.629 -27.99,22.242 -42.9,52.406 -46.86,87.774 -0.5,4.472 -0.59,9.121 -0.59,13.613 0,35.387 13.78,65.531 39.05,90.148 25.42,24.758 56.12,37.883 91.65,37.883 29.69,0 57.5,-7.738 81.51,-25.406 33.69,-24.789 47.34,-56.766 49.98,-89.852 h -198.02 c -28.67,0 -29.23,-49.496 0.44,-49.496 z m -668.76,316.418 c 15.4,0 27.88,-12.484 27.88,-27.883 0,-15.398 -12.48,-27.882 -27.88,-27.882 -15.4,0 -27.88,12.484 -27.88,27.882 0,15.399 12.48,27.883 27.88,27.883 z M 2521.47,553.918 V 261.34 c -1.15,-33.242 44.84,-33.336 46.1,-0.895 v 296.168 c -1.18,24.387 -47.02,25.996 -46.1,-2.695 z M 2217.19,261.496 v 176.215 c 0,24.332 9.27,45.281 26.99,61.926 17.64,16.574 38.93,24.922 63.12,24.922 24.94,0 47.05,-8.477 65.56,-25.188 18.55,-16.746 28.57,-37.879 28.57,-62.933 V 263.41 c 0,-33.605 54.16,-35.269 54.16,0.957 v 169.524 c 0,40.179 -14,74.183 -42.29,102.718 -28.16,28.411 -61.89,42.649 -101.9,42.649 -40.75,0 -75.41,-14.055 -104.5,-42.602 -28.84,-28.304 -43.33,-62.054 -43.33,-102.492 V 262.453 c 0,-32.742 53.61,-32.144 53.62,-0.957"
         style="fill:#ffffff;fill-opacity:1;fill-rule:evenodd;stroke:none"
         id="path14" /><path
         d="M 527.074,27.8477 C 472.633,-4.28125 414.395,-4.55078 360.789,27.5781 L 225.613,104.918 90.582,182.016 C 35.457,212.73 5.58594,263.02 7.05469,325.344 V 634.188 C 6.22656,697.441 35.4023,747.887 90.2813,777.75 l 135.2887,77.285 134.817,77.121 c 54.457,32.137 112.672,32.395 166.293,0.27 L 661.836,855.07 796.875,777.984 c 55.129,-30.711 85,-81.004 83.527,-143.324 V 325.824 C 881.246,262.559 852.051,212.113 797.168,182.262 L 661.871,104.93 527.074,27.8477"
         style="fill:#ffffff;fill-opacity:1;fill-rule:evenodd;stroke:none"
         id="path16" /><path
         d="m 501.715,70.8047 135.39,77.4333 135.309,77.332 c 40.731,22.16 58.691,56.207 58.106,99.582 V 479.996 634.66 c 1.078,46.043 -19.747,78.477 -57.922,99.746 l -135.493,77.332 -135.21,77.391 c -39.782,23.828 -78.485,22.293 -116.149,0.066 L 250.344,811.738 115.031,734.43 C 74.3203,712.27 56.3711,678.223 56.9414,634.848 V 479.996 325.344 c -1.0742,-46.047 19.7461,-78.481 57.9256,-99.75 L 250.344,148.238 385.566,70.8711 C 425.34,47.043 464.055,48.5781 501.715,70.8047"
         style="fill:#171717;fill-opacity:1;fill-rule:evenodd;stroke:none"
         id="path18" /><path
         d="M 64.8438,680.84 C 59.2773,667.012 56.6953,651.633 56.9414,634.848 V 479.996 325.344 c -0.4062,-17.309 2.293,-32.715 7.8359,-46.305 L 180.801,479.996 64.8438,680.84"
         style="fill:#232323;fill-opacity:1;fill-rule:evenodd;stroke:none"
         id="path20" /><path
         d="m 822.629,279.16 c 5.601,13.863 8.148,29.231 7.891,45.992 V 479.996 634.66 c 0.402,17.309 -2.278,32.688 -7.825,46.281 L 706.668,479.996 822.629,279.16"
         style="fill:#232323;fill-opacity:1;fill-rule:evenodd;stroke:none"
         id="path22" /><path
         d="m 501.715,70.8047 135.39,77.4333 135.309,77.332 c 24.981,13.586 41.391,31.645 50.215,53.59 l -361.27,625.715 c -25.671,4.605 -50.859,-1.074 -75.613,-15.68 L 250.344,811.738 115.031,734.43 C 90.0664,720.848 73.668,702.773 64.8438,680.84 L 426.102,55.125 c 25.66,-4.582 50.863,1.0742 75.613,15.6797"
         style="fill:#1d1d1d;fill-opacity:1;fill-rule:evenodd;stroke:none"
         id="path24" /><path
         d="m 480.23,749.535 h -82.667 c -19.825,0 -23.067,-5.406 -5.84,-22.601 L 609.898,494.637 H 747.766 L 524.699,732.152 c -16.711,17.493 -14.344,16.633 -44.469,17.383"
         style="fill:#218e6d;fill-opacity:1;fill-rule:evenodd;stroke:none"
         id="path26" /><path
         d="m 480.23,210.465 h -82.667 c -19.825,0 -23.067,5.406 -5.84,22.601 L 609.898,465.359 H 747.766 L 524.699,227.852 C 507.988,210.355 510.355,211.215 480.23,210.465"
         style="fill:#b9003d;fill-opacity:1;fill-rule:evenodd;stroke:none"
         id="path28" /><path
         d="m 407.23,749.535 h 82.668 c 19.825,0 23.067,-5.406 5.84,-22.601 L 277.563,494.637 H 139.695 l 223.067,237.515 c 16.711,17.493 14.343,16.633 44.468,17.383"
         style="fill:#33cc99;fill-opacity:1;fill-rule:evenodd;stroke:none"
         id="path30" /><path
         d="m 407.23,210.465 h 82.668 c 19.825,0 23.067,5.406 5.84,22.601 L 277.563,465.359 H 139.695 L 362.762,227.852 c 16.711,-17.497 14.343,-16.637 44.468,-17.387"
         style="fill:#ff0066;fill-opacity:1;fill-rule:evenodd;stroke:none"
         id="path32" /><path
         d="m 443.73,532.617 c 29.059,0 52.618,-23.554 52.618,-52.617 0,-29.059 -23.559,-52.617 -52.618,-52.617 -29.062,0 -52.617,23.558 -52.617,52.617 0,29.063 23.555,52.617 52.617,52.617"
         style="fill:#e6e6e6;fill-opacity:1;fill-rule:evenodd;stroke:none"
         id="path34" /></g></g></svg>
