<svg width="24" height="19" viewBox="0 0 24 19" fill="none" xmlns="http://www.w3.org/2000/svg">
<path fill-rule="evenodd" clip-rule="evenodd" d="M2.4904 19H21.5095C22.8831 19 24 17.8916 24 16.5307V2.47158C24 1.10833 22.8831 0 21.5095 0H2.4904C1.1168 0 0 1.10833 0 2.47158V16.5284C0 17.8916 1.1168 19 2.4904 19ZM10.136 10.5343C10.5624 10.9009 11.0848 11.0826 11.6063 11.0826C12.1278 11.0826 12.6494 10.9009 13.0741 10.5367L22.163 2.78475C22.4467 2.54382 22.4831 2.11401 22.2454 1.82666C22.0076 1.53932 21.5835 1.49929 21.299 1.74262L12.2055 9.49538C11.856 9.79472 11.3487 9.79472 10.9992 9.49538L1.90561 1.74262C1.62187 1.5017 1.19704 1.53932 0.959248 1.82666C0.721473 2.11401 0.757927 2.54382 1.04168 2.78475L10.136 10.5343Z" fill="white"/>
</svg>
