<svg width="42" height="41" viewBox="0 0 42 41" fill="none" xmlns="http://www.w3.org/2000/svg">
<path fill-rule="evenodd" clip-rule="evenodd" d="M8.16297 6.68077C7.52504 3.39466 10.0767 0.361328 13.3939 0.361328C16.3285 0.361328 18.7525 2.76272 18.7525 5.66966V12.2419C19.518 12.2419 20.2836 12.1155 21.0491 12.1155C21.8146 12.1155 22.4525 12.1155 23.218 12.2419V5.66966C23.218 2.76272 25.6421 0.361328 28.5766 0.361328C31.8938 0.361328 34.4455 3.39466 33.9351 6.68077L32.5317 14.3905C37.5076 16.5391 41.3351 20.3308 41.3351 25.0072V27.9141C41.3351 31.8322 38.7834 35.1183 35.0834 37.2669C31.3834 39.5419 26.5353 40.8058 21.0491 40.8058C15.5629 40.8058 10.7147 39.5419 7.0147 37.2669C3.44233 35.1183 0.890625 31.8322 0.890625 27.9141V25.0072C0.890625 20.3308 4.59059 16.5391 9.56641 14.3905L8.16297 6.68077ZM30.6179 15.4016L32.2765 6.30161C32.6593 4.02661 31.0007 1.87799 28.5766 1.87799C26.5353 1.87799 24.8766 3.52105 24.8766 5.54327V13.8849C24.3662 13.7586 23.7283 13.7586 23.218 13.7586C22.4525 13.7586 21.8146 13.6322 21.0491 13.6322C20.2836 13.6322 19.518 13.6322 18.7525 13.7586C18.2422 13.7586 17.6043 13.8849 17.094 13.8849V5.66966C17.094 3.64744 15.4353 2.00438 13.3939 2.00438C11.0974 2.00438 9.31123 4.15299 9.82158 6.42799L11.4802 15.528C6.12161 17.5502 2.54923 21.0891 2.54923 25.1336V28.0405C2.54923 34.2336 10.8423 39.2891 21.0491 39.2891C31.2559 39.2891 39.5489 34.2336 39.5489 28.0405V25.1336C39.6765 20.9627 36.104 17.4238 30.6179 15.4016Z" fill="#633001"/>
<path d="M39.6794 27.9138C39.6794 34.1068 31.3863 39.1624 21.1795 39.1624C10.9727 39.1624 2.67969 34.1068 2.67969 27.9138V25.0068H39.8069V27.9138H39.6794Z" fill="#FEDC90"/>
<path fill-rule="evenodd" clip-rule="evenodd" d="M9.82445 6.42947C9.31411 4.15447 11.1003 2.00586 13.3968 2.00586C15.4382 2.00586 17.0968 3.64892 17.0968 5.67114V14.0128C18.3727 13.8864 19.6485 13.76 21.0519 13.76C22.3278 13.76 23.6036 13.8864 24.8794 14.0128V5.67114C24.8794 3.64892 26.5381 2.00586 28.5795 2.00586C30.876 2.00586 32.6621 4.15447 32.2794 6.42947L30.6208 15.5295C35.9794 17.5517 39.6794 21.0906 39.6794 25.135C39.6794 31.3281 31.3863 36.3837 21.1795 36.3837C10.9727 36.3837 2.67969 31.3281 2.67969 25.135C2.67969 21.0906 6.25207 17.5517 11.6106 15.5295L9.82445 6.42947Z" fill="#D1884F"/>
<path d="M15.946 24.2482C15.946 25.8912 15.0529 27.2815 13.9046 27.2815C12.7564 27.2815 11.8633 25.8912 11.8633 24.2482C11.8633 22.6051 12.7564 21.2148 13.9046 21.2148C15.0529 21.2148 15.946 22.6051 15.946 24.2482Z" fill="#633001"/>
<path d="M30.1062 24.2477C30.1062 25.8907 29.2131 27.281 28.0649 27.281C26.9165 27.281 26.0234 25.8907 26.0234 24.2477C26.0234 22.6046 26.9165 21.2144 28.0649 21.2144C29.2131 21.2144 30.1062 22.6046 30.1062 24.2477Z" fill="#633001"/>
</svg>
