<svg width="40" height="41" viewBox="0 0 40 41" fill="none" xmlns="http://www.w3.org/2000/svg">
<path d="M8.19956 30.2039C8.29176 30.3707 8.34871 30.4927 8.37312 30.5469C8.94939 31.6642 9.65583 32.791 10.6226 33.431L10.7175 33.4907C11.8104 34.1673 13.7684 34.753 15.7819 35.0771C15.9162 33.5232 16.8477 32.1144 17.7711 31.0771C16.5642 31.4407 15.3108 31.6262 14.0504 31.6276C12.0141 31.63 10.0071 31.1416 8.19956 30.2039ZM23.6124 24.2907C22.4639 23.9205 20.7433 22.1971 18.1304 22.8222C15.9745 23.3375 15.3277 24.8398 14.9846 25.3863C14.1806 24.5944 13.3277 24.0575 12.6199 23.9354C12.0816 23.8446 11.729 24.0086 11.527 24.1605C11.1609 24.4398 11.1514 24.4493 13.5907 29.5246L13.7941 29.9463C13.7968 29.9544 13.8036 29.9598 13.8077 29.968L14.0273 30.4208C14.0273 30.4208 14.167 30.8954 14.9779 30.6703C14.9779 30.6703 20.5941 30.1334 22.7311 26.2473C23.0428 25.6029 23.3367 24.95 23.6124 24.2893V24.2907ZM1.40228 17.507C1.41991 17.1815 1.39821 16.4561 0.931773 16.0832C0.556621 17.4619 0.340972 18.8791 0.289062 20.3069C0.730924 20.3522 1.14992 20.5256 1.49448 20.8059C1.39008 20.1347 1.16906 18.9985 1.40364 17.507H1.40228ZM22.5521 34.5293C21.6355 33.5368 21.4795 31.6805 22.0924 28.9863C22.1412 28.7747 22.1941 28.5646 22.247 28.3571C21.3751 29.2913 19.9216 30.2039 19.028 31.069C18.0395 32.0263 16.7948 33.5585 16.6755 35.2032C17.729 35.3307 18.765 35.3917 19.668 35.3252C21.4036 35.1978 22.2389 34.669 22.5521 34.5293ZM33.1351 11.1422C33.5709 11.6823 33.9354 12.2761 34.2199 12.909C34.8463 14.0887 36.8897 17.4446 39.5866 16.8019C39.4337 15.8346 39.2209 14.8777 38.9493 13.9368C38.9304 13.8798 38.9114 13.8229 38.8897 13.7646L38.8992 13.7619C38.628 12.8561 38.289 11.9449 37.8727 11.0432C36.3243 11.6914 34.5032 11.4826 33.1351 11.1422ZM30.3243 4.20799C30.3924 4.27044 30.4397 4.3523 30.4598 4.4425C30.48 4.5327 30.4719 4.62691 30.4368 4.7124C29.7683 6.32595 28.247 7.65476 26.9453 8.5551C28.1385 8.53747 29.7168 8.77205 31.5649 9.66968C32.1548 9.91917 35.2341 11.1341 37.4768 10.2337C37.47 10.2215 37.4605 10.2066 37.4551 10.1931C37.4104 10.1063 37.3615 10.0209 37.3154 9.93544C35.7534 7.17333 33.5401 4.83477 30.868 3.12325C28.9083 1.93421 26.7195 1.17271 24.445 0.888672C24.663 2.00765 24.5421 3.16624 24.0978 4.21612C27.5392 2.70562 29.3724 3.33748 30.3243 4.20799ZM23.4443 34.1225C24.8566 33.4757 26.24 32.7677 27.5907 32.0005C27.4999 31.9639 27.4158 31.9246 27.3385 31.8825C25.6667 30.9686 24.7311 27.8229 24.3094 25.0744C24.25 25.2301 24.1867 25.3843 24.1195 25.5368C23.6512 26.7283 23.2683 27.9518 22.9738 29.1978C22.2443 32.4018 22.7921 33.6507 23.4443 34.1212V34.1225ZM34.2592 18.2798C32.1575 19.4473 30.087 20.0344 28.0694 20.0344C26.9353 20.0342 25.8092 19.8463 24.7365 19.4785C25.1094 20.9754 24.8368 22.4846 25.0565 23.8486C25.1582 23.8839 25.2626 23.9205 25.3683 23.953C28.4666 24.9686 30.8734 25.1449 32.3283 24.4629C32.7264 24.2814 33.0762 24.0087 33.3493 23.6669C34.3663 22.3856 34.3053 19.7103 34.2578 18.2798H34.2592Z" fill="#FF6B00"/>
<path d="M29.388 30.8681L29.3907 30.8722C31.5507 29.5976 32.8483 26.6539 33.3039 24.94C33.1208 25.0674 32.9242 25.1813 32.7114 25.2817C31.967 25.6301 31.0883 25.7739 30.1486 25.7739C28.5487 25.7739 26.7724 25.3589 25.1887 24.8478C25.5927 27.4959 26.4768 30.3813 27.7731 31.0905C28.2571 31.3549 28.7859 31.283 29.388 30.8681ZM24.5039 18.4301C24.8726 18.5789 25.2497 18.7056 25.6334 18.8098C28.3602 19.5393 31.247 19.02 34.2164 17.264C34.1866 15.6234 33.8666 14.323 33.4002 13.2925C33.2741 13.0512 33.2063 12.8993 33.1968 12.8803H33.1981C32.6869 11.8967 31.9442 11.0521 31.0341 10.4193C29.0192 9.47286 27.369 9.38879 26.2897 9.50947C29.3758 10.723 29.9019 12.4708 29.9263 12.5549L29.948 12.6281C29.9706 12.7081 29.9645 12.7935 29.9308 12.8695C29.8972 12.9455 29.838 13.0074 29.7636 13.0444L29.6958 13.0783C26.729 14.5807 23.9222 13.7413 22.3887 13.0213C22.8402 14.0884 23.4395 15.5149 23.6727 16.0668L23.6782 16.064C23.7744 16.2837 23.868 16.5129 23.9602 16.7501L23.9656 16.7637C24.1649 17.2871 24.3493 17.843 24.5026 18.4301H24.5039ZM34.5608 31.4783C33.7676 30.3338 33.5073 28.6674 33.4693 27.1352C33.1941 27.7847 32.908 28.3637 32.6327 28.8613L32.6341 28.8627C32.5934 28.9576 32.5432 29.0498 32.4863 29.1447C32.0253 30.0505 30.5364 33.2233 31.228 35.2613C31.4286 35.8552 31.7975 36.2918 32.348 36.5888C32.908 36.1752 34.5364 34.8803 36.1229 32.7108C35.4849 32.4762 34.938 32.0451 34.5608 31.4796V31.4783ZM4.27886 27.0213C3.25377 25.6789 2.51343 24.5237 2.14055 23.3061C1.93581 22.6362 1.24428 21.3752 0.273438 21.2206C0.286997 23.1976 0.592081 25.1067 1.14801 26.9074C2.36428 26.7013 3.40292 26.78 4.27886 27.0213Z" fill="#FF6B00"/>
<path d="M30.372 35.5491C29.9015 34.1552 30.25 32.4101 30.7246 30.9986C30.455 31.2107 30.1787 31.4142 29.8961 31.6087L29.8988 31.6128L29.7524 31.705C29.4047 31.9421 29.0512 32.1704 28.692 32.3898L28.6948 32.3938C28.4832 32.5254 23.6046 35.6114 25.9327 40.0169C27.966 39.3881 29.8845 38.4353 31.6141 37.1952C31.0264 36.8021 30.5888 36.222 30.372 35.5491ZM39.7117 17.6996C39.4391 17.7579 39.1666 17.7891 38.8954 17.7891C37.5558 17.7891 36.2297 17.0718 35.0066 15.6711C35.0034 15.6667 34.9998 15.6626 34.9958 15.6589C35.0785 16.2447 35.1219 16.8603 35.1219 17.5003C35.1354 17.6901 35.1463 17.8799 35.1544 18.0684C35.2493 19.1437 35.6236 21.5301 37.073 22.8101C37.7795 23.4352 38.673 23.7199 39.7347 23.663C39.7442 23.621 39.7537 23.5721 39.7619 23.522C39.8622 22.7109 39.9125 21.8945 39.9124 21.0772C39.9137 20.0562 39.8608 18.9132 39.7117 17.6996Z" fill="#FF6B00"/>
<path d="M36.4713 23.4836C35.8123 22.9006 35.3458 22.148 35.0164 21.3724C34.9256 22.1013 34.7971 22.825 34.6313 23.5406C34.5133 24.2362 33.8164 28.826 35.3011 30.9656C35.6564 31.4795 36.1025 31.7955 36.6597 31.9338C37.3479 30.8955 37.932 29.7918 38.4035 28.6389L38.4089 28.6416C38.9458 27.3467 39.3513 25.9839 39.6035 24.5697C38.3764 24.6009 37.3255 24.2375 36.4713 23.4836ZM8.493 32.5222C8.05394 31.8728 7.66545 31.1906 7.33097 30.4816C6.76555 29.4931 5.05301 27.2341 1.43945 27.7738C2.16767 29.7913 3.21813 31.6775 4.54996 33.3589C5.62792 32.2226 7.14656 32.1765 8.493 32.5222ZM19.9221 36.2199C18.6042 36.3297 17.0584 36.2171 15.5615 35.9636C14.4686 35.8483 11.4218 35.7358 9.29029 37.6856C11.7892 39.3193 14.6268 40.3635 17.5886 40.7392C17.552 39.4117 18.1676 38.0409 19.392 36.7446C19.5682 36.5548 19.7472 36.3812 19.9208 36.2199H19.9221ZM10.1879 34.2253C9.69029 33.927 6.74656 32.2795 5.15741 34.026C5.59674 34.567 6.73436 35.8524 8.53368 37.1595C9.70385 36.0165 11.114 35.4538 12.4021 35.1975C11.6232 34.976 10.8782 34.6489 10.1879 34.2253ZM25.6821 34.0409C24.5703 34.5995 21.5764 35.6124 19.8638 37.5677C19.0964 38.4436 18.4238 39.5649 18.4943 40.8043C19.0991 40.8707 20.4835 40.9697 22.2909 40.7717L22.5567 40.7419L22.6652 40.7283C23.4733 40.6239 24.2679 40.4707 25.0448 40.27C23.7825 37.7263 24.5716 35.5663 25.6821 34.0409ZM8.10927 23.866C8.16487 23.9094 8.26114 23.9717 8.573 23.9717C8.94724 23.9717 9.63334 23.8809 10.9377 23.5501C12.0632 23.2653 13.7581 22.7568 15.6496 21.9229C15.8598 21.8253 16.3954 21.565 17.0137 21.2585C17.2198 21.489 17.3988 21.7602 17.5154 22.0802C21.0408 21.3101 22.3818 22.8395 23.857 23.4117C24.1594 21.9717 24.1106 20.0856 23.7432 19.089C20.3181 17.5596 18.1364 14.5914 17.331 13.3345C16.5255 13.9609 15.3242 14.7948 14.5947 16.2701C13.1113 19.2694 11.5466 21.9663 8.75063 22.826C8.27199 22.9738 7.96012 23.0917 7.91944 23.4389C7.91194 23.5203 7.92545 23.6024 7.95868 23.6772C7.99191 23.7519 8.04376 23.817 8.10927 23.866Z" fill="#FF6B00"/>
<path d="M10.4774 17.4928C11.295 16.9044 12.7689 15.8522 13.2841 15.4291C14.2225 14.6576 16.8163 12.6088 17.4699 12.0922C17.4883 12.0776 17.5098 12.0674 17.5327 12.0622C17.5555 12.0571 17.5793 12.0571 17.6022 12.0623C17.6251 12.0675 17.6465 12.0777 17.6649 12.0923C17.6833 12.1068 17.6982 12.1253 17.7085 12.1464C19.7289 16.1667 23.4184 17.9213 23.4184 17.9213C23.2597 17.4305 23.0699 16.9315 22.8489 16.4244L22.8529 16.423L22.0801 14.5993L21.5919 13.4481C21.3153 12.8013 21.1011 12.2956 21.0387 12.1573L20.4502 10.8108C20.4313 10.7661 20.4828 10.7254 20.5235 10.7539L21.7167 11.6122C21.7506 11.6366 25.1919 14.0406 28.8828 12.4623C28.5085 11.8657 27.4048 10.6183 24.4543 9.86844L23.4468 9.61217C23.375 9.59455 23.3655 9.49556 23.4333 9.46302L24.3729 9.02099C24.4123 9.00336 28.1777 7.20811 29.4577 4.67116C27.7736 3.51862 24.834 4.77964 23.177 5.66642L21.2882 6.68065C21.2435 6.7037 21.1987 6.64811 21.2313 6.60879L22.6197 4.9776C22.6794 4.90709 24.0285 3.26642 23.5418 0.981677C22.6211 0.839304 19.5011 0.622355 16.7418 3.50642L16.1913 4.08269C16.1801 4.09411 16.1659 4.10211 16.1504 4.10576C16.1348 4.1094 16.1185 4.10855 16.1035 4.10328C16.0884 4.09802 16.0751 4.08857 16.0652 4.07603C16.0553 4.0635 16.0492 4.04841 16.0475 4.03252L15.817 1.75049C14.4394 2.34032 10.7987 4.37828 10.2604 9.60133C10.0692 11.459 9.76822 13.0562 9.35737 14.4135L9.35466 14.4108L9.30042 14.602C9.1567 15.0535 9.00076 15.4766 8.83263 15.8739C8.70126 16.1596 8.54804 16.4348 8.37432 16.6969C8.07195 17.1498 8.20754 17.4522 8.33365 17.5769C8.57771 17.8264 9.78449 17.9918 10.4774 17.4928ZM14.5641 8.94234C15.1757 8.54912 15.8252 9.19997 15.4333 9.81285C15.4075 9.85353 15.3723 9.88878 15.3316 9.91455C14.7187 10.3078 14.0692 9.65692 14.4611 9.04539C14.4882 9.00472 14.5235 8.96946 14.5641 8.94234ZM11.3384 8.94234C11.9513 8.54912 12.5994 9.19997 12.2075 9.81285C12.1818 9.85353 12.1465 9.88878 12.1058 9.91455C11.493 10.3078 10.8435 9.65692 11.2367 9.04539C11.2638 9.00472 11.2977 8.96946 11.3384 8.94234Z" fill="#FF6B00"/>
</svg>
