<svg width="41" height="42" viewBox="0 0 41 42" fill="none" xmlns="http://www.w3.org/2000/svg">
<path d="M20.2222 41.3058C31.3906 41.3058 40.4444 32.252 40.4444 21.0836C40.4444 9.91513 31.3906 0.861328 20.2222 0.861328C9.0538 0.861328 0 9.91513 0 21.0836C0 32.252 9.0538 41.3058 20.2222 41.3058Z" fill="white"/>
<path d="M21.0732 20.9428C20.3641 20.5214 19.5884 20.2762 18.7925 20.0873C17.7422 19.8381 16.6754 19.7405 15.5994 19.7944C14.8414 19.8324 14.0898 19.938 13.3921 20.2711C13.3084 20.3112 13.2274 20.3583 13.1504 20.41C12.5854 20.7889 12.4999 21.2937 12.908 21.8392C12.9925 21.9517 13.0867 22.0573 13.2003 22.1957C12.8341 22.1975 12.509 22.1275 12.1852 22.0631C11.3187 21.8914 10.5039 21.5905 9.80568 21.033C9.46921 20.7649 9.16201 20.4634 8.9375 20.0896C9.02937 19.9403 9.18268 19.8703 9.32623 19.7876C9.603 19.6716 9.85335 19.5056 10.1272 19.381C11.3589 18.8189 12.6457 18.4737 13.9927 18.3475C14.5273 18.2975 15.0625 18.2464 15.6006 18.2665C17.1922 18.3257 18.7465 18.6042 20.2659 19.0779C20.6552 19.199 21.0416 19.3317 21.4465 19.4711C21.4459 19.3569 21.381 19.2869 21.3374 19.2128C21.1743 18.9343 20.9871 18.6719 20.7776 18.425C20.7017 18.3359 20.5955 18.2573 20.5978 18.1189C20.8114 18.1678 21.0255 18.2154 21.2392 18.2659C21.2948 18.2791 21.3632 18.3136 21.3999 18.2665C21.4487 18.2044 21.3752 18.1505 21.3437 18.1034C21.0284 17.6343 20.6363 17.2335 20.2154 16.8597C20.4381 16.7305 20.6679 16.8361 20.8849 16.8638C23.1145 17.148 25.1455 17.9426 26.9174 19.3323C29.2631 21.1725 30.779 23.5497 31.418 26.473C31.6322 27.4543 31.6838 28.4511 31.6121 29.4445C31.4863 31.1716 30.9437 32.765 29.9228 34.1805C29.8562 34.2735 29.7649 34.3476 29.7155 34.4532C29.4836 34.7977 29.1442 35.0314 28.8306 35.2864C27.1356 36.661 25.1593 37.3771 23.0301 37.7112C21.3667 37.9725 19.6945 38.0104 18.0225 37.7991C15.368 37.4637 12.931 36.5416 10.7169 35.0383C10.1853 34.6772 9.66386 34.301 9.19646 33.8555C9.17866 33.8353 9.17981 33.8158 9.19933 33.7975C9.29924 33.7579 9.3624 33.8302 9.42844 33.8796C10.5516 34.7283 11.7993 35.3196 13.1545 35.6895C13.6046 35.8124 14.064 35.8875 14.5234 35.9616C14.6278 35.9995 14.7386 35.9818 14.8454 35.9995C14.8672 36.0024 14.889 36.007 14.9103 36.0133C15.9566 36.1367 16.9964 36.0644 18.0282 35.8824C20.2964 35.4822 22.3106 34.5319 24.0361 33.0062C25.212 31.9663 26.1406 30.7387 26.6315 29.224C27.1201 27.7167 27.0535 26.2352 26.3633 24.7802C26.2221 25.4331 25.8793 25.9734 25.451 26.4655C25.0168 26.949 24.519 27.3555 23.9557 27.6805C23.8903 27.7185 23.8179 27.7896 23.7432 27.7322C23.6784 27.6823 23.7175 27.5961 23.7369 27.5306C23.8747 27.0771 23.9649 26.6136 24.0206 26.1428C24.221 24.163 23.4567 22.623 21.8811 21.4545C21.6239 21.2661 21.3534 21.0961 21.0732 20.9428Z" fill="#262F71"/>
<path d="M29.7218 34.4546C29.7202 34.2859 29.8562 34.1912 29.9389 34.0729C30.7227 32.9538 31.2004 31.7146 31.4479 30.375C31.6012 29.5447 31.6144 28.7075 31.5599 27.8761C31.4754 26.5944 31.1481 25.3622 30.6319 24.1816C30.2519 23.3123 29.7816 22.4981 29.2137 21.7402C28.6114 20.9362 27.9131 20.2243 27.1397 19.5829C25.9349 18.5837 24.5776 17.8712 23.0915 17.3998C22.3026 17.1494 21.4958 16.9754 20.6684 16.9014C20.5197 16.8881 20.3732 16.8525 20.2223 16.8618C19.6986 16.4765 19.1686 16.1015 18.5703 15.8345C18.572 15.8144 18.5738 15.7948 18.5754 15.7748C18.7902 15.7748 19.0049 15.7783 19.2197 15.7742C22.2268 15.7203 24.9979 16.4575 27.4188 18.2886C29.9286 20.1869 31.4968 22.6951 32.0841 25.7911C32.5854 28.4319 32.1966 30.9268 30.733 33.215C30.4442 33.6646 30.1283 34.0981 29.7218 34.4546Z" fill="#161F42"/>
<path d="M27.3974 6.15449C27.0966 7.07551 26.7182 7.9592 26.1773 8.76941C25.6283 9.59166 24.9657 10.3071 24.2032 10.9336C24.1595 10.9697 24.1205 11.0111 24.0792 11.0501C23.8162 11.184 23.6003 11.3855 23.3568 11.5474C22.4663 12.1399 21.5165 12.616 20.5242 13.0121C20.5002 13.0219 20.4727 13.0248 20.4503 13.0306C20.4071 12.9663 20.4582 12.9427 20.4847 12.9174C21.0479 12.3817 21.3971 11.7179 21.6297 10.987C21.6629 10.883 21.7048 10.8193 21.8111 10.7773C23.5606 10.0849 24.9571 8.93363 26.1009 7.45679C26.2048 7.32242 26.3065 7.18633 26.4351 7.01752C26.0808 7.01005 25.8098 7.18863 25.5106 7.23629C25.4544 7.23974 25.3808 7.28682 25.3677 7.18002C26.4546 5.89266 27.2665 4.45372 27.7667 2.84136C27.7982 2.73915 27.7667 2.59847 27.9091 2.54736C27.9205 2.55483 27.9252 2.56344 27.9234 2.57321C27.9217 2.58355 27.9189 2.58871 27.916 2.58871C27.8941 3.72793 27.7471 4.84876 27.4371 5.94663C27.4181 6.01382 27.4106 6.08502 27.3974 6.15449Z" fill="#161F42"/>
<path d="M20.5991 18.1204C20.9517 18.5161 21.2675 18.9381 21.5201 19.4049C21.5449 19.4497 21.608 19.5008 21.5518 19.5542C21.5086 19.5944 21.4587 19.5451 21.4139 19.5284C20.2471 19.0942 19.0516 18.7618 17.8257 18.5511C17.209 18.4449 16.5837 18.3983 15.9573 18.353C15.3894 18.3122 14.8272 18.3323 14.2685 18.3771C12.983 18.4799 11.7312 18.7549 10.5414 19.2694C10.1745 19.4279 9.79897 19.5703 9.45846 19.7851C9.41942 19.8097 9.37291 19.85 9.32812 19.7879C10.3663 19.0495 11.5055 18.5218 12.7228 18.1583C14.3949 17.6594 16.1025 17.537 17.8361 17.6737C18.7204 17.7432 19.5942 17.8792 20.4596 18.0722C20.5072 18.0831 20.5526 18.1043 20.5991 18.1204Z" fill="#161F42"/>
<path d="M35.2658 17.0805C34.2552 16.5895 33.1855 16.2903 32.0808 16.1106C31.785 16.0624 31.4905 16.0038 31.189 16.0015C30.8037 15.758 30.4259 15.5008 30.0308 15.2734C28.7417 14.5292 27.3625 14.0319 25.8914 13.7966C25.8667 13.7925 25.8443 13.7787 25.8242 13.7512C26.2227 13.7121 26.6138 13.7771 27.0031 13.8281C27.3987 13.8798 27.7932 13.9533 28.1825 14.0417C28.5638 14.1284 28.9422 14.2341 29.3148 14.3535C29.6938 14.4753 30.0653 14.6212 30.4374 14.7635C30.8054 14.9042 31.158 15.0816 31.5439 15.2849C31.4492 15.0024 31.2797 14.8141 31.1758 14.5913C31.166 14.5316 31.0828 14.4799 31.1379 14.4167C31.1976 14.3495 31.2568 14.4213 31.309 14.4449C31.4583 14.5126 31.6007 14.5941 31.7506 14.6613C33.007 15.3102 34.18 16.0848 35.2721 16.9834C35.3324 17.0638 35.3324 17.0638 35.2658 17.0805Z" fill="#161F42"/>
<path d="M19.9611 10.6744C19.5953 12.1896 18.4458 13.1848 16.892 13.3301C16.5928 13.3582 16.2936 13.392 15.9922 13.3639C16.0307 13.2531 16.1363 13.2629 16.2213 13.2393C16.5584 13.1475 16.8931 13.0492 17.2055 12.8879C17.7918 12.5853 18.2207 12.138 18.4653 11.5201C18.494 11.4472 18.5205 11.3726 18.5824 11.3192C19.0367 11.0947 19.5115 10.9058 19.9077 10.5773C19.9898 10.5739 19.9806 10.6215 19.9611 10.6744Z" fill="#161F42"/>
<path d="M10.7118 17.0434C10.713 16.9865 10.7153 16.9297 10.7159 16.8729C10.7222 16.498 10.5092 16.3549 10.1612 16.5139C9.75929 16.6977 9.50664 17.0256 9.32978 17.4195C9.28959 17.427 9.26835 17.4155 9.28098 17.3701C9.40731 16.9016 9.65192 16.5139 10.0584 16.2383C10.1601 16.1695 10.2732 16.1287 10.3938 16.108C10.589 16.0742 10.7767 16.1809 10.8193 16.3722C10.8715 16.6065 10.8457 16.8361 10.7118 17.0434Z" fill="#161F42"/>
<path d="M24.0858 26.1552C23.6948 26.4762 23.3089 26.8046 22.8501 27.0291C22.8018 27.0527 22.7582 27.0998 22.6732 27.07C22.8242 26.7472 22.9523 26.4182 23.0304 26.0732C23.3697 24.5814 23.0551 23.2251 22.1771 21.9871C21.9606 21.6816 21.6689 21.4462 21.4112 21.1792C21.3698 21.1362 21.3238 21.0821 21.2487 21.1183C21.1711 21.0804 21.1333 21.0035 21.0781 20.9438C21.1154 20.8961 21.1539 20.9225 21.1907 20.9432C22.2299 21.5329 23.097 22.2977 23.6264 23.391C23.8888 23.9331 24.0415 24.5061 24.0955 25.1119C24.1266 25.4644 24.1276 25.8078 24.0858 26.1552Z" fill="#0E1F66"/>
<path d="M21.285 21.1029C21.2098 21.0369 21.1559 20.9507 21.0778 20.8881C20.5208 20.5356 19.9035 20.3254 19.2747 20.1498C18.5214 19.9389 17.7525 19.8121 16.9711 19.7569C16.0007 19.6881 15.0383 19.7128 14.0932 19.9591C13.6424 20.0769 13.198 20.2232 12.8615 20.5787C12.5859 20.8698 12.5285 21.1988 12.6921 21.5669C12.7817 21.769 12.9109 21.9453 13.0734 22.1393C12.5595 22.0836 12.0898 21.9981 11.6276 21.8694C10.6043 21.5841 9.73615 21.0621 9.08328 20.2094C9.04481 20.1589 9.00864 20.1026 8.93858 20.0889C8.6888 20.2393 8.47578 20.4368 8.25356 20.6229C8.13757 20.7199 8.06407 20.7751 8.01526 20.5494C7.93603 20.1807 7.88779 19.8076 7.80855 19.4394C7.7942 19.1965 7.77985 18.9543 7.76549 18.7113C7.77181 18.4961 7.77869 18.2813 7.78502 18.0666C7.81258 17.8954 7.83957 17.7243 7.86713 17.5532C7.96875 17.2368 8.06981 16.921 8.17145 16.6046C8.36036 16.29 8.50104 15.9472 8.73301 15.6561C8.84211 15.5194 8.97648 15.3988 9.04538 15.2323C9.37095 14.9463 9.64082 14.5995 9.99341 14.3446C10.1949 14.1987 10.3419 13.9668 10.6187 13.9357C10.5768 14.1223 10.5349 14.309 10.4924 14.495C10.4579 14.7338 10.4264 14.9722 10.5722 15.1904C10.6422 15.3385 10.749 15.4418 10.9161 15.47C11.1676 15.5739 11.4145 15.5372 11.6597 15.4465C12.0324 15.3638 12.3637 15.1932 12.6692 14.9687C13.1509 14.6748 13.5373 14.2665 13.9473 13.8881C14.0352 13.8066 14.0668 13.8174 14.1518 13.8732C14.5439 14.1298 14.9689 14.1803 15.4592 14.0489C15.3536 14.019 15.2852 14.0041 15.2192 13.9805C14.8948 13.8651 14.5842 13.7285 14.3889 13.4207C14.3458 13.3346 14.3027 13.2489 14.2597 13.1628C14.2068 12.9946 14.1816 12.8224 14.1805 12.6466C14.1747 12.4422 14.2316 12.2482 14.2786 12.053C14.409 11.8261 14.5261 11.5953 14.7059 11.3955C15.0843 10.9752 15.5643 10.7317 16.0799 10.5388C16.475 10.3998 16.8654 10.2499 17.2421 10.0662C18.1138 9.70043 18.9429 9.25772 19.7009 8.69041C20.2653 8.2678 20.7763 7.79408 21.0841 7.13891C21.1834 6.92762 21.2196 7.16131 21.2874 7.17681C21.3723 7.35137 21.4573 7.52593 21.5423 7.70049C21.699 8.13459 21.8116 8.57901 21.8547 9.05044C23.3889 8.06797 24.7325 6.90694 25.8781 5.49211C23.4963 4.64631 21.0749 4.31729 18.5759 4.54755C16.9814 4.69455 15.4414 5.05629 13.9577 5.64829C11.1745 6.75937 8.84958 8.49173 6.98687 10.8425C5.55883 12.6443 4.55513 14.6593 3.95108 16.875C3.64101 18.012 3.46874 19.1719 3.40731 20.3472C3.38492 20.7727 3.34702 21.1993 3.38032 21.6272C3.49401 21.533 3.42223 21.4165 3.41822 21.3062C3.43717 21.4216 3.47678 21.5284 3.52215 21.6341C3.69498 22.0359 3.89136 22.4265 4.09117 22.8151C4.97143 24.5292 6.09457 26.0612 7.58405 27.2933C9.84869 29.1676 12.4469 30.0053 15.3892 29.6964C16.7236 29.5562 17.9817 29.1635 19.1542 28.5061C20.2934 27.8669 21.2489 27.0332 21.904 25.8849C22.2669 25.248 22.4674 24.5561 22.4478 23.8309C22.4191 22.7801 22.0017 21.8712 21.285 21.1029Z" fill="#418ACA"/>
<path d="M16.1929 12.5286C16.0006 12.7721 15.8817 13.0432 15.9908 13.3641C16.4358 13.2355 16.8883 13.1293 17.2971 12.899C17.9333 12.5413 18.3938 12.0411 18.581 11.3188C18.0625 11.4939 17.5515 11.6875 17.0536 11.9149C16.7263 12.0647 16.4185 12.2427 16.1929 12.5286Z" fill="#418ACA"/>
<path d="M10.2245 16.4341C10.1401 16.4542 10.0632 16.4926 9.99135 16.5403C9.67386 16.7516 9.42408 17.0174 9.30752 17.3901C9.30637 17.3924 9.30522 17.3953 9.30465 17.3975C9.29604 17.3889 9.28743 17.3804 9.27881 17.3711C9.22598 17.4435 9.22426 17.5284 9.20703 17.614C9.26044 17.61 9.27192 17.5756 9.28914 17.548C9.34542 17.494 9.40456 17.4423 9.45796 17.3855C9.65835 17.1736 9.89497 17.0209 10.1826 16.964C10.445 16.9118 10.5869 17.0134 10.6471 17.2752C10.6327 17.1874 10.7477 17.1398 10.7097 17.0444C10.7316 16.9985 10.7379 16.9485 10.7442 16.8998C10.7947 16.5265 10.5926 16.3462 10.2245 16.4341Z" fill="#418ACA"/>
<path d="M36.2967 25.4183C36.6981 23.9065 36.864 22.3693 36.8296 20.8058C36.7882 18.9362 36.4426 17.128 35.7931 15.3756C35.0409 13.3463 33.9293 11.5347 32.4748 9.93615C31.7708 9.1627 31.002 8.45415 30.1602 7.82941C29.2926 7.18516 28.3813 6.61211 27.4012 6.15332C27.288 6.22624 27.2662 6.35256 27.23 6.46568C27.1009 6.86877 26.947 7.2621 26.7632 7.64279C26.1558 8.90087 25.2944 9.95912 24.2235 10.8514C24.1604 10.9037 24.0696 10.9399 24.0834 11.0484C24.2414 11.1058 24.4091 11.084 24.5715 11.104C26.4107 11.3326 28.1608 11.8643 29.8232 12.6779C31.0124 13.2602 32.1291 13.9562 33.1593 14.7939C34.0211 15.4944 34.8417 16.2323 35.5203 17.1165C35.5066 17.1458 35.5158 17.1711 35.533 17.1958C35.5043 17.2021 35.4934 17.174 35.4739 17.163C35.3929 17.1176 35.3211 17.0574 35.2345 17.0229C35.0047 16.8898 34.7647 16.7789 34.5161 16.687C33.5176 16.3178 32.4869 16.0824 31.4309 15.9543C31.346 15.9441 31.2587 15.9308 31.188 16.0003C31.9414 16.5997 32.6591 17.2314 33.285 17.9721C33.9804 18.7955 34.5655 19.685 35.0294 20.6525C35.7449 22.1442 36.1417 23.721 36.2203 25.3758C36.2203 25.4654 36.2203 25.555 36.2203 25.6825C36.2708 25.5757 36.3076 25.5044 36.2967 25.4183Z" fill="#418ACA"/>
<path d="M14.8789 36.0455C16.2959 36.111 17.6678 35.8842 18.9976 35.3967C20.2827 34.9253 21.4666 34.2719 22.5312 33.4082C23.5688 32.5665 24.4617 31.6001 25.0583 30.3914C25.3787 29.7414 25.5779 29.057 25.6445 28.3243C25.7031 27.6754 25.594 27.0639 25.4177 26.4518C25.4373 26.3025 25.5739 26.2336 25.6537 26.1291C25.9621 25.7243 26.19 25.2868 26.2842 24.7838C26.294 24.7315 26.3193 24.6827 26.3537 24.5874C26.5558 25.006 26.7097 25.3929 26.8137 25.8006C26.9641 26.3921 27.0496 26.9938 27.0042 27.6014C26.9256 28.6682 26.6144 29.6656 26.0832 30.6022C25.5578 31.5284 24.8803 32.3253 24.0983 33.0327C23.4144 33.6517 22.6553 34.1719 21.8405 34.6124C20.854 35.1452 19.8188 35.5437 18.7283 35.7998C18.0485 35.9594 17.3605 36.0587 16.6612 36.0978C16.3258 36.1167 15.9894 36.146 15.6563 36.1242C15.398 36.107 15.1326 36.1248 14.8789 36.0455Z" fill="#0E1F66"/>
<path d="M14.535 36.0053C13.9511 35.9548 13.3832 35.8222 12.8228 35.6556C11.761 35.3399 10.7746 34.8627 9.84783 34.2586C9.62791 34.1151 9.44244 33.9228 9.203 33.8067C9.06576 33.7866 9.00834 33.6529 8.89868 33.5943C6.65642 31.6024 5.10091 29.1643 4.17473 26.3186C3.67861 24.7946 3.41678 23.23 3.3829 21.6273C3.3852 21.5837 3.37544 21.5436 3.37314 21.4942C3.36912 21.416 3.37142 21.3236 3.37659 21.2157C3.48855 21.4655 3.60282 21.6745 3.69297 21.872C4.52614 23.6991 5.593 25.366 7.06181 26.7538C8.62421 28.2296 10.4398 29.2131 12.577 29.5606C15.084 29.9683 17.4296 29.5313 19.5863 28.1801C20.6618 27.5066 21.5449 26.635 22.0519 25.4476C22.6668 24.0074 22.4354 22.669 21.4989 21.4362C21.4168 21.3283 21.3295 21.2243 21.2446 21.118C21.356 21.0227 21.4151 21.133 21.4783 21.1858C22.0404 21.6584 22.471 22.2298 22.7743 22.9004C23.0642 23.5429 23.2152 24.2216 23.2244 24.9187C23.2336 25.6244 23.0872 26.3111 22.7684 26.9761C22.8541 26.9795 22.9034 26.9382 22.954 26.9083C23.2508 26.7343 23.5333 26.5414 23.7946 26.3152C23.8755 26.2445 23.9474 26.1383 24.0817 26.1544C24.0082 26.6797 23.9095 27.2 23.7263 27.749C24.1058 27.5377 24.4205 27.3235 24.7225 27.0874C24.9711 26.8934 25.1715 26.65 25.415 26.453C25.5189 26.4972 25.5189 26.5999 25.543 26.6866C25.9398 28.1188 25.6527 29.456 24.9452 30.7187C24.0874 32.2501 22.826 33.3899 21.3543 34.3121C20.1599 35.0608 18.872 35.585 17.4962 35.8917C16.6314 36.0847 15.7586 36.1358 14.8772 36.0462C14.7693 35.9876 14.6447 36.0582 14.535 36.0053Z" fill="#161F42"/>
</svg>
