<svg width="45" height="41" viewBox="0 0 45 41" fill="none" xmlns="http://www.w3.org/2000/svg">
<path d="M9.08062 2.85254L43.2708 26.1974L34.8151 38.697L0.625 15.1683L9.08062 2.85254Z" fill="url(#paint0_linear_1468_2107)"/>
<path d="M43.275 26.1968C40.3339 30.4246 30.4077 28.7702 21.033 22.1528C11.4745 15.7192 6.32755 7.07975 9.08482 2.85194C12.0259 -1.37587 21.9521 0.278488 31.3268 6.89593C40.8853 13.1457 46.0322 21.969 43.275 26.1968Z" fill="url(#paint1_linear_1468_2107)"/>
<path d="M34.8161 38.5122C31.8751 42.74 21.9489 41.0857 12.5742 34.4682C3.19946 27.8508 -2.13126 19.3952 0.809828 14.9835C3.75091 10.7557 13.6771 12.4101 23.0518 19.0275C32.4265 25.645 37.5734 34.2844 34.8161 38.5122Z" fill="url(#paint2_linear_1468_2107)"/>
<path d="M43.2664 26.1955L34.8108 38.6951C31.8697 42.9229 21.9435 41.0848 12.5688 34.6511C10.7306 33.3644 9.07624 32.0777 7.42188 30.6071C8.7086 30.4233 10.363 29.688 12.0173 27.8499C14.9584 24.725 16.429 23.9897 17.7157 24.1735C19.0024 24.1735 20.473 25.4602 22.8626 28.5851C25.2522 31.71 28.5609 32.6291 30.5829 30.9748C30.7668 30.791 30.9506 30.791 31.1344 30.6071C32.7888 29.3204 33.3402 28.769 36.4651 22.8868C37.2004 21.4162 39.7738 19.0266 43.2664 20.1295C44.1855 22.5191 44.1855 24.5411 43.2664 26.1955Z" fill="#0E0F23"/>
<path fill-rule="evenodd" clip-rule="evenodd" d="M41.9832 25.4612C39.4098 29.1376 30.4027 27.2994 21.7633 21.2334C12.94 15.1674 7.7931 7.44705 10.3666 3.77069C12.94 0.0943321 21.9471 1.93251 30.5865 7.9985C39.226 14.0645 44.3729 21.7849 41.9832 25.4612ZM33.8952 19.9467C32.6085 21.7849 28.1969 20.8658 23.7853 17.9246C19.5575 14.9836 16.984 11.1235 18.2707 9.28528C19.5575 7.44705 23.9691 8.36613 28.3807 11.3073C32.6085 14.2484 35.182 18.1085 33.8952 19.9467Z" fill="white"/>
<path d="M8.35246 7.07832C8.35246 6.8945 8.16864 6.71068 7.98482 6.8945C7.80101 7.07832 7.61719 7.07832 7.61719 7.26214C7.80101 7.81359 7.98482 8.18122 7.98482 8.54886C7.98482 8.73268 8.16864 8.9165 8.35246 8.73268C8.53628 8.73268 8.72009 8.54886 8.53628 8.36504C8.53628 7.99741 8.53628 7.62977 8.35246 7.07832Z" fill="white"/>
<path d="M9.2663 10.0217C9.2663 9.83786 9.08248 9.65404 8.89866 9.83786C8.71484 10.0217 8.71484 10.0217 8.71484 10.2055C10.7369 14.8009 14.9647 19.764 20.4792 23.4404C20.663 23.6242 20.8468 23.4404 21.0307 23.4404C21.2145 23.2566 21.0307 23.0727 21.0307 22.8889C15.3323 19.2126 11.2883 14.4333 9.2663 10.0217Z" fill="white"/>
<path d="M31.5044 28.0352C31.3205 28.0352 31.1367 28.0352 31.1367 28.219C31.1367 28.4028 31.1367 28.5866 31.3205 28.5866C31.872 28.7704 32.6073 28.9542 33.1587 29.1381C33.3425 29.1381 33.5264 29.1381 33.5264 28.9542C33.5264 28.7704 33.5264 28.5866 33.3425 28.5866C32.7911 28.4028 32.0558 28.219 31.5044 28.0352Z" fill="white"/>
<path d="M34.8169 28.7698C34.633 28.7698 34.4492 28.9536 34.4492 29.1374C34.4492 29.3212 34.633 29.505 34.8169 29.505C36.2874 29.6889 37.9418 29.8727 39.2285 29.6889C39.4123 29.6889 39.5961 29.505 39.5961 29.3212C39.5961 29.1374 39.4123 28.9536 39.2285 28.9536C37.7579 29.1374 36.2874 28.9536 34.8169 28.7698Z" fill="white"/>
<defs>
<linearGradient id="paint0_linear_1468_2107" x1="15.7793" y1="-0.466656" x2="22.5596" y2="22.8161" gradientUnits="userSpaceOnUse">
<stop stop-color="#03B8FF"/>
<stop offset="1" stop-color="#FA52A0"/>
</linearGradient>
<linearGradient id="paint1_linear_1468_2107" x1="21.3671" y1="-2.0935" x2="28.1477" y2="21.1894" gradientUnits="userSpaceOnUse">
<stop stop-color="#03B8FF"/>
<stop offset="1" stop-color="#FA52A0"/>
</linearGradient>
<linearGradient id="paint2_linear_1468_2107" x1="10.2139" y1="1.15331" x2="16.9944" y2="24.4362" gradientUnits="userSpaceOnUse">
<stop stop-color="#03B8FF"/>
<stop offset="1" stop-color="#FA52A0"/>
</linearGradient>
</defs>
</svg>
