<svg width="27" height="22" viewBox="0 0 27 22" fill="none" xmlns="http://www.w3.org/2000/svg">
<path d="M27 2.6026C26.0058 3.04481 24.94 3.34401 23.8192 3.4782C24.9633 2.79107 25.8391 1.7006 26.2544 0.406263C25.1811 1.0428 23.9968 1.5048 22.7344 1.75486C21.724 0.673933 20.2868 0 18.6923 0C15.6336 0 13.1531 2.48821 13.1531 5.55427C13.1531 5.98987 13.2021 6.41448 13.2964 6.82074C8.6937 6.58901 4.61296 4.37654 1.88101 1.01566C1.40363 1.8348 1.1324 2.78887 1.1324 3.8082C1.1324 5.73541 2.11056 7.43674 3.59532 8.43187C2.68736 8.40108 1.83421 8.15101 1.08635 7.73448V7.80414C1.08635 10.4947 2.99659 12.7409 5.52897 13.2521C5.06475 13.3768 4.57567 13.4464 4.06978 13.4464C3.71157 13.4464 3.36578 13.4112 3.02657 13.343C3.73204 15.5518 5.7768 17.1579 8.19951 17.2018C6.30461 18.6912 3.91627 19.5764 1.32102 19.5764C0.873607 19.5764 0.433516 19.5492 0 19.5001C2.45123 21.0797 5.36156 22 8.48974 22C18.6785 22 24.2484 13.5344 24.2484 6.193L24.2294 5.47361C25.3179 4.69481 26.2595 3.71654 27 2.6026Z" fill="white"/>
</svg>
