<svg width="39" height="44" viewBox="0 0 39 44" fill="none" xmlns="http://www.w3.org/2000/svg">
<path d="M15.2338 10.2099C14.7598 10.1425 14.7372 10.1201 14.963 10.0976C15.3919 10.0302 16.3852 10.1201 17.0849 10.2773C18.7103 10.6592 20.1776 11.6475 21.7352 13.3771L22.1416 13.8489L22.7285 13.759C25.2342 13.3547 27.8076 13.6692 29.9522 14.6576C30.5391 14.9271 31.4647 15.4662 31.5776 15.601C31.6227 15.6459 31.6905 15.9379 31.7356 16.23C31.8936 17.2857 31.8259 18.0719 31.4873 18.6783C31.3067 19.0153 31.3067 19.1052 31.4195 19.3972C31.5098 19.6218 31.7808 19.7791 32.0291 19.7791C32.5709 19.7791 33.1352 18.9254 33.4061 17.7349L33.5189 17.2632L33.7221 17.4878C34.8734 18.7683 35.7764 20.5428 35.9118 21.8007L35.9569 22.1376L35.7538 21.8456C35.4152 21.329 35.0992 20.9921 34.6702 20.7C33.9027 20.1834 33.09 20.0261 30.9455 19.9138C29.0041 19.8015 27.898 19.6443 26.8144 19.2849C24.9634 18.6783 24.0152 17.8922 21.8255 14.9945C20.8548 13.7141 20.2453 13.0177 19.6358 12.4337C18.3039 11.1533 16.9721 10.4794 15.2338 10.2099Z" fill="#FF007A"/>
<path d="M32.0489 13.0632C32.094 12.2095 32.2068 11.648 32.4552 11.1313C32.5454 10.9292 32.6358 10.7495 32.6583 10.7495C32.681 10.7495 32.6358 10.9067 32.5681 11.0865C32.3875 11.5806 32.3649 12.277 32.4778 13.0632C32.6358 14.074 32.7035 14.2087 33.7871 15.3095C34.2837 15.8261 34.8707 16.4775 35.0964 16.7471L35.4801 17.2412L35.0964 16.8818C34.6223 16.4325 33.5387 15.579 33.2904 15.4667C33.1324 15.3768 33.1099 15.3768 32.9969 15.4891C32.9067 15.579 32.8841 15.7138 32.8841 16.3652C32.8615 17.376 32.7261 18.0049 32.3875 18.6564C32.2068 18.9933 32.1843 18.9259 32.3423 18.544C32.4552 18.252 32.4778 18.1173 32.4778 17.1514C32.4778 15.1971 32.252 14.7254 30.875 13.9392C30.5364 13.7371 29.9495 13.445 29.6109 13.2878C29.2496 13.1305 28.9788 12.9957 29.0013 12.9957C29.0465 12.9509 30.3784 13.3327 30.8975 13.5573C31.6877 13.8718 31.8231 13.8942 31.9134 13.8718C31.9811 13.8044 32.0263 13.6247 32.0489 13.0632Z" fill="#FF007A"/>
<path d="M16.1558 16.4109C15.2077 15.108 14.5981 13.0864 14.7336 11.5814L14.7788 11.1096L15.0045 11.1546C15.4109 11.2219 16.1106 11.4915 16.4492 11.6937C17.3522 12.2328 17.7585 12.9741 18.1424 14.816C18.2552 15.3551 18.4132 15.984 18.481 16.1863C18.5938 16.5232 19.0227 17.3094 19.3839 17.8036C19.6322 18.163 19.4742 18.3426 18.9099 18.2978C18.052 18.2079 16.9007 17.4217 16.1558 16.4109Z" fill="#FF007A"/>
<path d="M30.9014 26.1827C26.4317 24.3856 24.8516 22.8357 24.8516 20.2075C24.8516 19.8257 24.8741 19.5112 24.8741 19.5112C24.8967 19.5112 25.0547 19.6459 25.2578 19.8032C26.1609 20.5221 27.1767 20.8365 29.9984 21.2408C31.6463 21.4879 32.5945 21.6676 33.4523 21.9597C36.1838 22.8582 37.8768 24.7001 38.2832 27.1935C38.3961 27.9123 38.3283 29.2825 38.1477 30.0013C37.9897 30.5629 37.5382 31.5962 37.4254 31.6187C37.4028 31.6187 37.3576 31.5064 37.3576 31.3266C37.3125 30.3832 36.8384 29.4847 36.0483 28.7883C35.1002 27.9796 33.8812 27.3732 30.9014 26.1827Z" fill="#FF007A"/>
<path d="M27.7367 26.9235C27.6916 26.5865 27.5787 26.1598 27.511 25.98L27.3981 25.6431L27.6013 25.8902C27.8947 26.2271 28.1204 26.6314 28.3236 27.193C28.4817 27.6198 28.4817 27.7546 28.4817 28.4509C28.4817 29.1248 28.4591 29.2821 28.3236 29.6639C28.0979 30.2705 27.827 30.6972 27.3756 31.169C26.5628 32.0001 25.5019 32.4493 23.9894 32.6515C23.7185 32.6739 22.951 32.7413 22.2737 32.7863C20.5807 32.8761 19.452 33.0558 18.4362 33.4152C18.3007 33.4601 18.1653 33.5051 18.1427 33.4826C18.0975 33.4377 18.7974 33.0334 19.3617 32.7638C20.1518 32.382 20.9644 32.1797 22.7479 31.8653C23.6282 31.7305 24.5312 31.5508 24.7569 31.461C26.9918 30.7646 28.0979 29.035 27.7367 26.9235Z" fill="#FF007A"/>
<path d="M29.791 30.5399C29.2041 29.2594 29.0686 28.0464 29.3847 26.9009C29.4298 26.7886 29.475 26.6763 29.5201 26.6763C29.5652 26.6763 29.7007 26.7436 29.8362 26.8335C30.107 27.0132 30.6714 27.3277 32.1162 28.1139C33.9446 29.1022 34.9831 29.866 35.7054 30.742C36.3375 31.5057 36.7212 32.3818 36.9019 33.46C37.0147 34.0665 36.947 35.5266 36.789 36.1331C36.2924 38.0424 35.1636 39.5699 33.5157 40.446C33.2674 40.5808 33.0642 40.6706 33.0417 40.6706C33.0191 40.6706 33.1094 40.446 33.2449 40.1764C33.7867 39.0308 33.8543 37.9301 33.448 36.6947C33.1997 35.9309 32.6805 35.01 31.6421 33.46C30.4005 31.663 30.107 31.1913 29.791 30.5399Z" fill="#FF007A"/>
<path d="M12.9779 37.4137C14.6484 36.0211 16.7027 35.0326 18.5989 34.7182C19.4115 34.5834 20.7661 34.6283 21.5109 34.8305C22.7074 35.1449 23.791 35.8188 24.3553 36.65C24.8971 37.4587 25.1454 38.155 25.3938 39.7049C25.484 40.3114 25.5969 40.9404 25.6195 41.0751C25.8 41.8838 26.1613 42.5128 26.6128 42.8497C27.3125 43.3663 28.5315 43.3888 29.728 42.9395C29.9312 42.8722 30.1117 42.8048 30.1117 42.8272C30.1569 42.8722 29.5474 43.2765 29.1411 43.4786C28.5767 43.7707 28.1252 43.8605 27.5157 43.8605C26.4321 43.8605 25.5066 43.299 24.7617 42.1758C24.6036 41.9512 24.2876 41.2998 24.0167 40.6933C23.2266 38.8738 22.8203 38.3347 21.8947 37.7282C21.082 37.2116 20.0436 37.0992 19.2536 37.4811C18.2151 37.9753 17.9443 39.3006 18.6667 40.1093C18.9601 40.4462 19.5019 40.7157 19.9533 40.7832C20.7886 40.8955 21.5109 40.2441 21.5109 39.4129C21.5109 38.8738 21.3078 38.5593 20.7661 38.3122C20.0436 37.9978 19.2536 38.3572 19.2761 39.0535C19.2761 39.3455 19.4115 39.5252 19.705 39.66C19.8857 39.7498 19.8857 39.7498 19.7502 39.7274C19.0955 39.5926 18.9375 38.784 19.4567 38.2673C20.0888 37.6383 21.4207 37.9079 21.8722 38.784C22.0527 39.1433 22.0753 39.8622 21.9173 40.3114C21.5336 41.2998 20.45 41.8164 19.3439 41.5244C18.5989 41.3223 18.2829 41.1201 17.3799 40.1991C15.7997 38.5818 15.1902 38.2673 12.9327 37.9303L12.5039 37.863L12.9779 37.4137Z" fill="#FF007A"/>
<path fill-rule="evenodd" clip-rule="evenodd" d="M1.10056 1.2701C6.36034 7.62707 14.4645 17.5107 14.8708 18.0498C15.2094 18.499 15.074 18.9258 14.5096 19.2403C14.1936 19.42 13.5389 19.5997 13.2229 19.5997C12.8617 19.5997 12.4328 19.42 12.1393 19.128C11.9362 18.9258 11.0558 17.6455 9.06927 14.5681C7.55678 12.2095 6.27005 10.2552 6.24747 10.2328C6.15718 10.1878 6.15718 10.1878 8.91121 15.0847C10.6494 18.1621 11.2138 19.2628 11.2138 19.3976C11.2138 19.6896 11.1235 19.8468 10.7623 20.2511C10.1528 20.925 9.88192 21.6887 9.67874 23.2836C9.453 25.0582 8.84354 26.3161 7.10529 28.4501C6.08945 29.708 5.93143 29.9326 5.68312 30.4493C5.36708 31.0782 5.27678 31.4377 5.23164 32.2463C5.18648 33.0999 5.27678 33.639 5.5251 34.4477C5.75084 35.1664 5.99915 35.6382 6.60866 36.5592C7.12787 37.3678 7.4439 37.9743 7.4439 38.1989C7.4439 38.3786 7.48905 38.3786 8.30175 38.1989C10.2431 37.7497 11.8459 36.986 12.7263 36.0425C13.2681 35.4584 13.4035 35.144 13.4035 34.3354C13.4035 33.8187 13.3809 33.7063 13.2455 33.3919C13.0197 32.8977 12.5908 32.4934 11.6653 31.8644C10.4463 31.0333 9.92703 30.3594 9.7916 29.4609C9.67874 28.6971 9.81416 28.1805 10.4915 26.7654C11.1912 25.3053 11.3718 24.6988 11.4847 23.2163C11.5524 22.2728 11.6653 21.891 11.9362 21.5989C12.2296 21.2844 12.478 21.1721 13.1778 21.0823C14.329 20.925 15.074 20.633 15.6609 20.0715C16.1801 19.5997 16.4058 19.128 16.4284 18.4317L16.451 17.915L16.1575 17.6005C15.0965 16.3875 0.400758 0.304199 0.333035 0.304199C0.310461 0.304199 0.671648 0.730992 1.10056 1.2701ZM8.03083 33.2122C8.27911 32.7854 8.1437 32.2463 7.73737 31.9767C7.3536 31.7296 6.76668 31.842 6.76668 32.1789C6.76668 32.2687 6.81183 32.3586 6.94727 32.4035C7.15044 32.5158 7.17301 32.6282 7.01499 32.8753C6.85697 33.1223 6.85697 33.3469 7.06014 33.5042C7.37618 33.7513 7.80509 33.6165 8.03083 33.2122Z" fill="#FF007A"/>
<path fill-rule="evenodd" clip-rule="evenodd" d="M17.1713 21.3982C16.6295 21.5555 16.1103 22.1394 15.9523 22.7235C15.862 23.0829 15.9071 23.7343 16.0652 23.9365C16.3135 24.2509 16.5392 24.3408 17.1713 24.3408C18.4128 24.3408 19.4739 23.8017 19.5867 23.1503C19.6996 22.6112 19.2256 21.8699 18.5709 21.533C18.2323 21.3532 17.5325 21.2859 17.1713 21.3982ZM18.616 22.5213C18.7966 22.2517 18.7289 21.9598 18.3903 21.7576C17.7807 21.3757 16.8552 21.6902 16.8552 22.2742C16.8552 22.5662 17.3293 22.8808 17.7807 22.8808C18.0742 22.8808 18.4806 22.701 18.616 22.5213Z" fill="#FF007A"/>
</svg>
