<svg width="30" height="26" viewBox="0 0 30 26" fill="none" xmlns="http://www.w3.org/2000/svg">
<path d="M19.8688 14.6416C18.7162 14.6416 17.7812 15.9362 17.7812 17.534C17.7812 19.1319 18.7162 20.4272 19.8688 20.4272C21.0206 20.4272 21.9547 19.1319 21.9547 17.534C21.9547 15.9362 21.0206 14.6416 19.8688 14.6416Z" fill="white"/>
<path fill-rule="evenodd" clip-rule="evenodd" d="M26.1164 0C27.3831 3.19233 27.3715 6.52804 27.1337 7.11495C28.6227 8.73384 29.5327 10.6787 29.5327 13.3359C29.5327 24.8866 19.9641 25.0715 17.548 25.0715C17.0529 25.0715 16.1118 25.0729 15.0837 25.0743L14.7664 25.0747L14.4461 25.0743C13.4192 25.0729 12.4801 25.0715 11.9849 25.0715C9.56862 25.0715 0 24.8866 0 13.3359C0 10.6787 0.910075 8.73384 2.39915 7.11495C2.16134 6.52804 2.14968 3.19233 3.41725 0C3.41725 0 6.32389 0.31892 10.722 3.34199C11.6452 3.08654 13.2059 2.9596 14.7664 2.9596C16.327 2.9596 17.8883 3.08732 18.8101 3.34199C23.2088 0.31892 26.1164 0 26.1164 0ZM3.95357 17.0358C3.95357 22.9276 8.66794 23.6517 14.7214 23.6517H14.8116C20.8658 23.6517 25.5801 22.9276 25.5801 17.0358C25.5801 15.6254 25.0827 14.3144 23.9015 13.2277C22.464 11.9058 20.3 12.059 17.765 12.2385C16.8256 12.305 15.8354 12.3751 14.8124 12.3751C14.7975 12.3751 14.7828 12.3751 14.7665 12.3743C14.7517 12.3751 14.7361 12.3751 14.7214 12.3751C13.6983 12.3751 12.7081 12.305 11.7688 12.2385C9.23403 12.059 7.07011 11.9058 5.63149 13.2277C4.45018 14.3144 3.95357 15.6254 3.95357 17.0358Z" fill="white"/>
<path d="M9.66214 14.6416C8.51035 14.6416 7.57617 15.9362 7.57617 17.534C7.57617 19.1319 8.51035 20.4272 9.66214 20.4272C10.8155 20.4272 11.7497 19.1319 11.7497 17.534C11.7489 15.9362 10.8147 14.6416 9.66214 14.6416Z" fill="white"/>
</svg>
