<svg width="25" height="22" viewBox="0 0 25 22" fill="none" xmlns="http://www.w3.org/2000/svg">
<path fill-rule="evenodd" clip-rule="evenodd" d="M6.20238 12.722L0.441521 10.5488C-0.143726 10.3274 -0.148304 9.49247 0.434653 9.26504L24.0764 0.0471379C24.5776 -0.148569 25.0949 0.294984 24.9851 0.826945L20.7427 21.4533C20.6427 21.9406 20.078 22.1613 19.679 21.8681L13.8876 17.6185C13.5359 17.3608 13.0567 17.3744 12.7202 17.6517L9.50858 20.2971C9.13622 20.6055 8.57464 20.4339 8.43195 19.9692L6.20238 12.722ZM19.3309 4.5574L8.07231 11.5651C7.64043 11.8349 7.43747 12.3616 7.5771 12.8542L8.79414 17.1773C8.88036 17.4832 9.32062 17.4523 9.36259 17.1356L9.67924 14.7652C9.73877 14.3186 9.94936 13.9076 10.2759 13.6L19.5674 4.87098C19.7413 4.70776 19.5331 4.4312 19.3309 4.5574Z" fill="white"/>
</svg>
